<?xml version="1.0" encoding="UTF-8" standalone="no"?><!-- Generator: Gravit.io --><svg xmlns="http://www.w3.org/2000/svg" xmlns:xlink="http://www.w3.org/1999/xlink" style="isolation:isolate" viewBox="0 0 512 512" width="512pt" height="512pt"><defs><clipPath id="_clipPath_P85B5BVJWq0HH7oi3d7Jwfz5qiyBnuR1"><rect width="512" height="512"/></clipPath></defs><g clip-path="url(#_clipPath_P85B5BVJWq0HH7oi3d7Jwfz5qiyBnuR1)"><rect width="512" height="512" style="fill:rgb(0,0,0)" fill-opacity="0"/><path d="M 96 32 L 416 32 C 451.323 32 480 60.677 480 96 L 480 416 C 480 451.323 451.323 480 416 480 L 96 480 C 60.677 480 32 451.323 32 416 L 32 96 C 32 60.677 60.677 32 96 32 Z" style="stroke:none;fill:#E0081C;stroke-miterlimit:10;"/><path d=" M 294.99 152.535 C 273.688 168.131 257.522 190.383 249.153 216.25 C 241.165 210.354 231.275 206.74 220.434 206.74 C 193.617 206.74 171.744 228.802 171.744 256 C 171.744 283.198 193.617 305.26 220.434 305.26 C 231.085 305.26 240.975 301.837 249.153 295.75 C 257.522 321.617 273.688 343.869 294.99 359.465 C 274.068 374.871 248.392 384 220.434 384 C 150.443 384 93.765 326.752 93.765 256 C 93.765 185.248 150.443 128 220.434 128 C 248.392 128.19 274.068 137.129 294.99 152.535 Z  M 369.545 305.45 C 342.728 305.45 320.856 283.388 320.856 256.19 C 320.856 228.993 342.728 206.93 369.545 206.93 C 396.363 206.93 418.235 228.993 418.235 256.19 C 418.235 283.388 396.553 305.45 369.545 305.45 Z " fill-rule="evenodd" fill="rgb(255,255,255)"/></g></svg>