<?xml version="1.0" encoding="UTF-8" standalone="no"?><!-- Generator: Gravit.io --><svg xmlns="http://www.w3.org/2000/svg" xmlns:xlink="http://www.w3.org/1999/xlink" style="isolation:isolate" viewBox="0 0 512 512" width="512pt" height="512pt"><defs><clipPath id="_clipPath_z6bqXaUDUPNj8Y6HVwl99U1P5BI69G3P"><rect width="512" height="512"/></clipPath></defs><g clip-path="url(#_clipPath_z6bqXaUDUPNj8Y6HVwl99U1P5BI69G3P)"><rect width="512" height="512" style="fill:rgb(0,0,0)" fill-opacity="0"/><path d="M 96 32 L 416 32 C 451.323 32 480 60.677 480 96 L 480 416 C 480 451.323 451.323 480 416 480 L 96 480 C 60.677 480 32 451.323 32 416 L 32 96 C 32 60.677 60.677 32 96 32 Z" style="stroke:none;fill:#2396ED;stroke-miterlimit:10;"/><path d=" M 409.395 228.657 C 402.189 223.658 385.676 221.783 372.765 224.283 C 371.264 211.783 364.358 200.846 352.349 191.159 L 345.443 186.159 L 340.639 193.346 C 334.634 202.721 331.632 215.845 332.533 228.345 C 332.833 232.72 334.334 240.532 338.838 247.407 C 334.634 249.906 325.927 253.031 314.518 253.031 L 97.443 253.031 L 96.843 255.531 C 94.741 268.031 94.741 307.092 119.361 337.09 C 137.976 359.902 165.598 371.464 201.928 371.464 C 280.591 371.464 338.838 333.653 366.16 265.218 C 376.969 265.531 400.087 265.218 411.797 241.782 C 412.097 241.157 412.697 239.907 414.799 235.22 L 416 232.72 L 409.395 228.657 L 409.395 228.657 Z  M 270.983 140.536 L 237.957 140.536 L 237.957 171.785 L 270.983 171.785 L 270.983 140.536 L 270.983 140.536 Z  M 270.983 178.034 L 237.957 178.034 L 237.957 209.283 L 270.983 209.283 L 270.983 178.034 L 270.983 178.034 Z  M 231.952 178.034 L 198.925 178.034 L 198.925 209.283 L 231.952 209.283 L 231.952 178.034 L 231.952 178.034 Z  M 192.92 178.034 L 159.894 178.034 L 159.894 209.283 L 192.92 209.283 L 192.92 178.034 L 192.92 178.034 Z  M 153.889 215.533 L 120.862 215.533 L 120.862 246.782 L 153.889 246.782 L 153.889 215.533 L 153.889 215.533 Z  M 192.92 215.533 L 159.894 215.533 L 159.894 246.782 L 192.92 246.782 L 192.92 215.533 L 192.92 215.533 Z  M 231.952 215.533 L 198.925 215.533 L 198.925 246.782 L 231.952 246.782 L 231.952 215.533 L 231.952 215.533 Z  M 270.983 215.533 L 237.957 215.533 L 237.957 246.782 L 270.983 246.782 L 270.983 215.533 L 270.983 215.533 Z  M 310.015 215.533 L 276.988 215.533 L 276.988 246.782 L 310.015 246.782 L 310.015 215.533 L 310.015 215.533 Z " fill="rgb(255,255,255)"/></g></svg>