<?xml version="1.0" encoding="UTF-8" standalone="no"?><!-- Generator: Gravit.io --><svg xmlns="http://www.w3.org/2000/svg" xmlns:xlink="http://www.w3.org/1999/xlink" style="isolation:isolate" viewBox="0 0 512 512" width="512pt" height="512pt"><defs><clipPath id="_clipPath_RrzNWks5Umm5Q5qoLuZwH6Uw7jbmZ1kl"><rect width="512" height="512"/></clipPath></defs><g clip-path="url(#_clipPath_RrzNWks5Umm5Q5qoLuZwH6Uw7jbmZ1kl)"><rect width="512" height="512" style="fill:rgb(0,0,0)" fill-opacity="0"/><path d="M 96 32 L 416 32 C 451.323 32 480 60.677 480 96 L 480 416 C 480 451.323 451.323 480 416 480 L 96 480 C 60.677 480 32 451.323 32 416 L 32 96 C 32 60.677 60.677 32 96 32 Z" style="stroke:none;fill:#FFFFFF;stroke-miterlimit:10;"/><g><path d=" M 255.97 214.305 L 255.97 96 L 157.762 258.94 L 255.97 214.305 Z " fill="rgb(138,146,178)"/><path d=" M 255.97 317.012 L 255.97 214.305 L 157.762 258.94 L 255.97 317.012 Z  M 255.97 214.305 L 354.178 258.94 L 255.97 96 L 255.97 214.305 Z " fill="rgb(98,104,143)"/><path d=" M 255.97 214.305 L 255.97 317.012 L 354.178 258.94 L 255.97 214.305 Z " fill="rgb(69,74,117)"/><path d=" M 255.97 335.61 L 157.762 277.597 L 255.97 416 L 255.97 335.61 Z " fill="rgb(138,146,178)"/><path d=" M 354.238 277.597 L 255.97 335.61 L 255.97 416 L 354.238 277.597 Z " fill="rgb(98,104,143)"/></g></g></svg>