<?xml version="1.0" encoding="UTF-8" standalone="no"?><!-- Generator: Gravit.io --><svg xmlns="http://www.w3.org/2000/svg" xmlns:xlink="http://www.w3.org/1999/xlink" style="isolation:isolate" viewBox="0 0 512 512" width="512pt" height="512pt"><defs><clipPath id="_clipPath_B33OijM50BsjUMnjp6ss5VyyIZDiRHHR"><rect width="512" height="512"/></clipPath></defs><g clip-path="url(#_clipPath_B33OijM50BsjUMnjp6ss5VyyIZDiRHHR)"><rect width="512" height="512" style="fill:rgb(0,0,0)" fill-opacity="0"/><defs><linearGradient id="_lgradient_1" x1="0.1464466094067262" y1="0.14644660940672627" x2="0.8535533905932737" y2="0.8535533905932737"><stop offset="0%" style="stop-color:#0095D5"/><stop offset="100%" style="stop-color:#806EE2"/></linearGradient></defs><path d="M 96 32 L 416 32 C 451.323 32 480 60.677 480 96 L 480 416 C 480 451.323 451.323 480 416 480 L 96 480 C 60.677 480 32 451.323 32 416 L 32 96 C 32 60.677 60.677 32 96 32 Z" style="stroke:none;fill:url(#_lgradient_1);stroke-miterlimit:10;"/><g><path d=" M 112 416 L 256 272 L 416 416 L 112 416 Z " fill="rgb(255,255,255)"/><path d=" M 96 96 L 240 96 L 96 240 L 96 96 Z " fill="rgb(255,255,255)"/><linearGradient id="_lgradient_2" x1="-0.16836166666666666" y1="1.8326843853820596" x2="0.7621916666666666" y2="0.9021310520487262" gradientTransform="matrix(320,0,0,320,96,96)" gradientUnits="userSpaceOnUse"><stop offset="10.75%" stop-opacity="1" style="stop-color:rgb(199,87,188)"/><stop offset="21.38%" stop-opacity="1" style="stop-color:rgb(208,96,154)"/><stop offset="42.54%" stop-opacity="1" style="stop-color:rgb(225,114,92)"/><stop offset="60.480000000000004%" stop-opacity="1" style="stop-color:rgb(238,126,47)"/><stop offset="74.3%" stop-opacity="1" style="stop-color:rgb(245,134,19)"/><stop offset="82.32000000000001%" stop-opacity="1" style="stop-color:rgb(248,137,9)"/></linearGradient><path d=" M 256.533 96 L 96 256 L 96 416 L 256.533 255.467 L 416 96 L 256.533 96 Z " fill="url(#_lgradient_2)"/></g></g></svg>