<?xml version="1.0" encoding="UTF-8" standalone="no"?><!-- Generator: Gravit.io --><svg xmlns="http://www.w3.org/2000/svg" xmlns:xlink="http://www.w3.org/1999/xlink" style="isolation:isolate" viewBox="0 0 512 512" width="512pt" height="512pt"><defs><clipPath id="_clipPath_1o6HB2gWbZaMuZPcLVeDFunqM0hBFjEK"><rect width="512" height="512"/></clipPath></defs><g clip-path="url(#_clipPath_1o6HB2gWbZaMuZPcLVeDFunqM0hBFjEK)"><rect width="512" height="512" style="fill:rgb(0,0,0)" fill-opacity="0"/><path d="M 96 32 L 416 32 C 451.323 32 480 60.677 480 96 L 480 416 C 480 451.323 451.323 480 416 480 L 96 480 C 60.677 480 32 451.323 32 416 L 32 96 C 32 60.677 60.677 32 96 32 Z" style="stroke:none;fill:#326CE5;stroke-miterlimit:10;"/><path d=" M 255.991 99.698 C 250.974 99.698 246.907 104.217 246.908 109.79 C 246.908 109.875 246.925 109.957 246.927 110.042 C 246.92 110.799 246.883 111.712 246.908 112.371 C 247.027 115.586 247.728 118.046 248.15 121.008 C 248.914 127.346 249.554 132.601 249.159 137.485 C 248.775 139.326 247.418 141.011 246.209 142.181 L 245.996 146.024 C 240.545 146.476 235.058 147.303 229.577 148.547 C 205.993 153.902 185.687 166.05 170.228 182.452 C 169.225 181.768 167.47 180.509 166.948 180.123 C 165.326 180.342 163.688 180.843 161.553 179.599 C 157.488 176.863 153.786 173.086 149.307 168.537 C 147.254 166.361 145.768 164.288 143.329 162.191 C 142.775 161.714 141.93 161.07 141.311 160.58 C 139.404 159.06 137.155 158.267 134.984 158.193 C 132.192 158.097 129.504 159.189 127.745 161.395 C 124.618 165.317 125.619 171.312 129.977 174.786 C 130.021 174.821 130.068 174.849 130.112 174.883 C 130.711 175.369 131.445 175.991 131.995 176.397 C 134.583 178.308 136.947 179.286 139.525 180.803 C 144.957 184.157 149.461 186.939 153.033 190.293 C 154.428 191.78 154.672 194.4 154.857 195.533 L 157.768 198.134 C 142.184 221.586 134.972 250.556 139.234 280.073 L 135.43 281.179 C 134.428 282.474 133.011 284.511 131.529 285.119 C 126.856 286.591 121.596 287.131 115.246 287.797 C 112.265 288.045 109.693 287.897 106.532 288.496 C 105.836 288.627 104.867 288.88 104.106 289.058 C 104.08 289.064 104.055 289.072 104.029 289.078 C 103.987 289.087 103.933 289.108 103.893 289.117 C 98.539 290.41 95.1 295.331 96.207 300.179 C 97.315 305.028 102.544 307.977 107.929 306.816 C 107.968 306.808 108.025 306.806 108.065 306.797 C 108.126 306.783 108.18 306.754 108.24 306.739 C 108.991 306.574 109.932 306.391 110.588 306.215 C 113.696 305.383 115.946 304.16 118.74 303.09 C 124.749 300.935 129.727 299.134 134.576 298.432 C 136.602 298.274 138.735 299.682 139.797 300.276 L 143.756 299.597 C 152.867 327.844 171.96 350.675 196.137 365.001 L 194.488 368.96 C 195.082 370.497 195.738 372.577 195.295 374.095 C 193.532 378.667 190.512 383.492 187.074 388.872 C 185.409 391.357 183.705 393.286 182.203 396.13 C 181.843 396.811 181.385 397.857 181.038 398.576 C 178.704 403.571 180.416 409.323 184.9 411.482 C 189.413 413.654 195.014 411.363 197.438 406.358 C 197.441 406.351 197.454 406.346 197.457 406.339 C 197.459 406.333 197.454 406.325 197.457 406.32 C 197.802 405.61 198.291 404.677 198.583 404.01 C 199.869 401.062 200.298 398.535 201.203 395.684 C 203.606 389.647 204.926 383.314 208.234 379.367 C 209.14 378.286 210.617 377.87 212.149 377.46 L 214.206 373.734 C 235.283 381.824 258.875 383.995 282.443 378.644 C 287.819 377.424 293.01 375.844 298.027 373.948 C 298.606 374.973 299.68 376.945 299.968 377.441 C 301.524 377.947 303.223 378.209 304.607 380.255 C 307.082 384.484 308.774 389.486 310.836 395.529 C 311.742 398.38 312.189 400.907 313.476 403.855 C 313.769 404.527 314.256 405.473 314.602 406.184 C 317.02 411.205 322.639 413.504 327.158 411.327 C 331.642 409.167 333.356 403.415 331.02 398.421 C 330.673 397.701 330.196 396.656 329.837 395.975 C 328.334 393.131 326.63 391.221 324.965 388.736 C 321.526 383.357 318.674 378.888 316.911 374.316 C 316.174 371.958 317.035 370.492 317.61 368.96 C 317.266 368.566 316.53 366.339 316.096 365.292 C 341.222 350.456 359.755 326.774 368.458 299.422 C 369.633 299.607 371.676 299.968 372.339 300.101 C 373.705 299.201 374.961 298.025 377.424 298.219 C 382.273 298.92 387.251 300.722 393.261 302.877 C 396.054 303.947 398.305 305.189 401.412 306.021 C 402.069 306.197 403.01 306.361 403.76 306.525 C 403.821 306.54 403.874 306.57 403.935 306.584 C 403.976 306.593 404.032 306.594 404.071 306.603 C 409.457 307.762 414.687 304.815 415.793 299.966 C 416.899 295.117 413.461 290.195 408.108 288.903 C 407.329 288.726 406.224 288.425 405.468 288.282 C 402.308 287.684 399.735 287.831 396.754 287.583 C 390.404 286.918 385.145 286.377 380.471 284.905 C 378.566 284.166 377.21 281.899 376.551 280.965 L 372.883 279.898 C 374.785 266.139 374.272 251.82 370.981 237.492 C 367.659 223.031 361.789 209.806 353.96 198.153 C 354.901 197.298 356.678 195.724 357.182 195.261 C 357.329 193.631 357.203 191.923 358.89 190.118 C 362.462 186.764 366.965 183.983 372.398 180.628 C 374.976 179.111 377.359 178.133 379.947 176.222 C 380.532 175.79 381.331 175.106 381.946 174.611 C 386.303 171.136 387.306 165.142 384.178 161.22 C 381.05 157.299 374.988 156.93 370.631 160.405 C 370.011 160.896 369.17 161.537 368.613 162.016 C 366.175 164.114 364.669 166.186 362.616 168.362 C 358.137 172.912 354.434 176.708 350.37 179.444 C 348.609 180.469 346.029 180.115 344.858 180.046 L 341.403 182.51 C 321.705 161.854 294.884 148.648 266.005 146.082 C 265.924 144.872 265.818 142.684 265.791 142.026 C 264.609 140.895 263.181 139.929 262.822 137.485 C 262.427 132.601 263.087 127.346 263.851 121.008 C 264.272 118.046 264.973 115.586 265.093 112.371 C 265.12 111.64 265.076 110.58 265.073 109.79 C 265.073 104.217 261.007 99.697 255.991 99.698 L 255.991 99.698 Z  M 244.618 170.148 L 241.92 217.793 L 241.726 217.891 C 241.545 222.153 238.037 225.557 233.73 225.557 C 231.966 225.557 230.337 224.99 229.014 224.023 L 228.936 224.062 L 189.869 196.367 C 201.876 184.561 217.234 175.835 234.933 171.817 C 238.166 171.083 241.398 170.538 244.618 170.148 Z  M 267.383 170.148 C 288.047 172.689 307.158 182.046 321.802 196.387 L 282.987 223.907 L 282.851 223.849 C 279.405 226.365 274.551 225.741 271.866 222.374 C 270.766 220.994 270.189 219.373 270.119 217.735 L 270.08 217.716 L 267.383 170.148 Z  M 175.701 214.164 L 211.372 246.07 L 211.334 246.265 C 214.553 249.064 215.028 253.921 212.343 257.288 C 211.243 258.667 209.77 259.593 208.189 260.025 L 208.151 260.18 L 162.426 273.377 C 160.099 252.097 165.114 231.411 175.701 214.164 Z  M 336.028 214.184 C 341.328 222.774 345.341 232.369 347.73 242.771 C 350.091 253.048 350.684 263.307 349.71 273.222 L 303.753 259.986 L 303.714 259.792 C 299.599 258.667 297.069 254.481 298.028 250.282 C 298.42 248.562 299.333 247.107 300.57 246.032 L 300.551 245.935 L 336.028 214.184 L 336.028 214.184 Z  M 248.674 248.535 L 263.288 248.535 L 272.371 259.889 L 269.11 274.056 L 255.991 280.364 L 242.832 274.037 L 239.572 259.869 L 248.674 248.535 Z  M 295.524 287.389 C 296.145 287.358 296.763 287.414 297.368 287.525 L 297.445 287.428 L 344.742 295.424 C 337.82 314.871 324.575 331.718 306.877 342.992 L 288.518 298.646 L 288.576 298.568 C 286.889 294.649 288.577 290.054 292.457 288.185 C 293.451 287.707 294.489 287.442 295.524 287.389 L 295.524 287.389 Z  M 216.088 287.583 C 219.698 287.634 222.935 290.139 223.774 293.813 C 224.166 295.533 223.975 297.238 223.327 298.743 L 223.463 298.917 L 205.298 342.818 C 188.314 331.919 174.786 315.601 167.55 295.579 L 214.439 287.622 L 214.516 287.719 C 215.041 287.623 215.573 287.576 216.088 287.583 L 216.088 287.583 Z  M 255.699 306.816 C 256.957 306.77 258.232 307.028 259.445 307.612 C 261.035 308.378 262.263 309.583 263.035 311.028 L 263.21 311.028 L 286.325 352.793 C 283.325 353.799 280.241 354.658 277.087 355.374 C 259.409 359.388 241.787 358.172 225.831 352.735 L 248.887 311.047 L 248.926 311.047 C 250.31 308.461 252.933 306.918 255.699 306.816 Z " fill="rgb(255,255,255)" vector-effect="non-scaling-stroke" stroke-width="0.25" stroke="rgb(255,255,255)" stroke-linejoin="miter" stroke-linecap="butt" stroke-miterlimit="4"/></g></svg>