<?xml version="1.0" encoding="UTF-8" standalone="no"?><!-- Generator: Gravit.io --><svg xmlns="http://www.w3.org/2000/svg" xmlns:xlink="http://www.w3.org/1999/xlink" style="isolation:isolate" viewBox="0 0 512 512" width="512pt" height="512pt"><defs><clipPath id="_clipPath_mz4mmqbtnAV4t4XMJ38fuJCJzLCaUAWf"><rect width="512" height="512"/></clipPath></defs><g clip-path="url(#_clipPath_mz4mmqbtnAV4t4XMJ38fuJCJzLCaUAWf)"><rect width="512" height="512" style="fill:rgb(0,0,0)" fill-opacity="0"/><path d="M 96 32 L 416 32 C 451.323 32 480 60.677 480 96 L 480 416 C 480 451.323 451.323 480 416 480 L 96 480 C 60.677 480 32 451.323 32 416 L 32 96 C 32 60.677 60.677 32 96 32 Z" style="stroke:none;fill:#FFFFFF;stroke-miterlimit:10;"/><g><path d=" M 95.304 267.597 L 95.304 128.434 L 215.826 198.015 L 215.826 244.403 L 135.478 198.015 L 135.478 290.791 L 95.304 267.597 Z " fill="rgb(0,176,255)"/><path d=" M 215.826 198.015 L 336.348 128.434 L 336.348 267.597 L 256 313.985 L 215.826 290.791 L 296.174 244.403 L 296.174 198.015 L 215.826 244.403 L 215.826 198.015 Z " fill="rgb(0,129,203)"/><path d=" M 215.826 290.791 L 215.826 337.178 L 296.174 383.566 L 296.174 337.178 L 215.826 290.791 Z " fill="rgb(0,176,255)"/><path d=" M 296.174 383.566 L 416.696 313.985 L 416.696 221.209 L 376.522 244.403 L 376.522 290.791 L 296.174 337.178 L 296.174 383.566 Z  M 376.522 198.015 L 376.522 151.628 L 416.696 128.434 L 416.696 174.822 L 376.522 198.015 Z " fill="rgb(0,129,203)"/></g></g></svg>