<?xml version="1.0" encoding="UTF-8" standalone="no"?><!-- Generator: Gravit.io --><svg xmlns="http://www.w3.org/2000/svg" xmlns:xlink="http://www.w3.org/1999/xlink" style="isolation:isolate" viewBox="0 0 512 512" width="512pt" height="512pt"><defs><clipPath id="_clipPath_gjgp9Sus9nqZPjcc5mkjUMmus5bbViro"><rect width="512" height="512"/></clipPath></defs><g clip-path="url(#_clipPath_gjgp9Sus9nqZPjcc5mkjUMmus5bbViro)"><rect width="512" height="512" style="fill:rgb(0,0,0)" fill-opacity="0"/><path d="M 96 32 L 416 32 C 451.323 32 480 60.677 480 96 L 480 416 C 480 451.323 451.323 480 416 480 L 96 480 C 60.677 480 32 451.323 32 416 L 32 96 C 32 60.677 60.677 32 96 32 Z" style="stroke:none;fill:#000000;stroke-miterlimit:10;"/><g><path d=" M 155.51 225.228 L 155.658 225.228 C 138.217 225.228 126.492 235.274 126.492 255.042 L 126.492 267.092 C 128.291 266.31 130.218 265.861 132.178 265.766 C 134.167 265.686 136.142 266.144 137.893 267.092 L 137.893 255.042 C 137.893 242.315 144.934 235.598 155.569 235.598 C 166.205 235.598 173.246 242.315 173.246 255.042 L 173.246 285.858 L 184.647 285.858 L 184.647 255.042 C 184.647 235.274 172.863 225.228 155.51 225.228 Z  M 190.951 256.368 L 190.834 256.368 C 190.834 238.279 203.885 225.228 222.651 225.228 C 241.417 225.228 254.144 238.368 254.144 256.368 L 254.144 260.404 L 202.883 260.404 C 204.216 270.175 212.802 277.302 222.651 276.814 C 230.37 276.814 235.731 274.486 239.09 269.449 L 251.581 269.449 C 246.897 280.496 236.173 287.537 222.445 287.537 C 204.002 287.537 190.951 274.486 190.951 256.368 Z  M 242.537 250.476 C 240.383 241.427 232.055 235.222 222.769 235.746 C 213.563 235.24 205.346 241.474 203.354 250.476 L 242.537 250.476 Z  M 260.419 256.368 C 260.419 238.658 273.167 225.654 291.451 225.239 L 292.354 225.228 C 300.775 224.895 308.962 228.045 314.987 233.936 C 321.013 239.828 324.346 247.942 324.201 256.368 C 324.201 274.486 311.121 287.537 292.354 287.537 C 273.588 287.537 260.419 274.486 260.419 256.368 Z  M 312.329 256.368 C 312.649 250.861 310.601 245.48 306.701 241.58 C 302.8 237.679 297.419 235.632 291.912 235.952 C 286.431 235.734 281.108 237.815 277.227 241.691 C 273.345 245.567 271.257 250.887 271.467 256.368 C 271.147 261.883 273.197 267.271 277.103 271.177 C 281.009 275.083 286.398 277.134 291.912 276.814 C 304.315 277.167 312.329 268.447 312.329 256.368 Z  M 411.993 229.235 L 411.993 285.505 C 411.993 300.235 406.278 307.629 391.548 307.629 L 389.191 307.629 L 389.191 297.937 L 390.546 297.937 C 397.911 297.937 400.592 294.578 400.592 286.153 L 400.592 229.235 L 411.993 229.235 Z  M 373.783 217.745 C 379.603 219.611 383.539 225.038 383.505 231.15 L 383.505 267.445 L 390.193 267.445 L 390.193 277.491 L 383.505 277.491 L 383.505 291.573 L 372.104 291.573 L 372.104 277.491 L 343.292 277.491 C 337.884 277.73 332.811 274.874 330.211 270.126 C 328.059 265.721 328.718 260.46 331.89 256.722 L 357.639 222.872 C 361.288 217.772 367.86 215.686 373.783 217.745 Z  M 370.042 228.557 L 369.04 228.557 C 368.08 228.598 367.201 229.104 366.683 229.913 L 341.288 263.085 C 340.856 263.538 340.613 264.139 340.611 264.764 C 340.611 266.391 341.93 267.71 343.557 267.71 L 372.045 267.71 L 372.045 231.238 C 372.045 229.235 370.719 228.557 370.042 228.557 Z " fill="rgb(255,255,255)"/><path d=" M 406.278 203.015 C 400.909 203.015 396.556 207.368 396.556 212.737 C 396.556 218.106 400.909 222.459 406.278 222.459 C 411.647 222.459 416 218.106 416 212.737 C 416 207.368 411.647 203.015 406.278 203.015 Z " fill="rgb(1,139,255)"/><path d=" M 131.53 271.452 C 129.435 271.343 127.382 272.063 125.814 273.455 L 115.091 266.444 C 115.379 265.581 115.499 264.671 115.444 263.763 C 115.456 259.828 113.095 256.274 109.463 254.76 C 105.831 253.246 101.645 254.07 98.858 256.848 C 96.072 259.626 95.235 263.81 96.738 267.447 C 98.241 271.083 101.787 273.455 105.722 273.455 C 107.809 273.576 109.857 272.854 111.408 271.452 L 122.132 278.817 C 121.866 279.685 121.757 280.592 121.808 281.498 C 121.754 282.404 121.863 283.312 122.132 284.179 L 111.408 291.573 C 109.802 290.264 107.794 289.547 105.722 289.541 C 101.79 289.541 98.245 291.909 96.74 295.542 C 95.236 299.175 96.067 303.357 98.848 306.137 C 101.628 308.917 105.81 309.749 109.443 308.244 C 113.076 306.74 115.444 303.195 115.444 299.263 C 115.501 298.354 115.381 297.444 115.091 296.582 L 125.814 289.217 C 127.431 290.523 129.45 291.231 131.53 291.22 C 134.105 291.22 136.575 290.195 138.394 288.371 C 140.212 286.547 141.23 284.074 141.222 281.498 C 141.256 276.072 136.953 271.612 131.53 271.452 Z " fill="rgb(1,139,255)"/></g></g></svg>