<?xml version="1.0" encoding="UTF-8" standalone="no"?><!-- Generator: Gravit.io --><svg xmlns="http://www.w3.org/2000/svg" xmlns:xlink="http://www.w3.org/1999/xlink" style="isolation:isolate" viewBox="0 0 512 512" width="512pt" height="512pt"><defs><clipPath id="_clipPath_wW1lIzxipWRHObd2j105SJeYNmGw0AGp"><rect width="512" height="512"/></clipPath></defs><g clip-path="url(#_clipPath_wW1lIzxipWRHObd2j105SJeYNmGw0AGp)"><rect width="512" height="512" style="fill:rgb(0,0,0)" fill-opacity="0"/><path d="M 96 32 L 416 32 C 451.323 32 480 60.677 480 96 L 480 416 C 480 451.323 451.323 480 416 480 L 96 480 C 60.677 480 32 451.323 32 416 L 32 96 C 32 60.677 60.677 32 96 32 Z" style="stroke:none;fill:#3178C6;stroke-miterlimit:10;"/><path d=" M 307.292 371.557 L 307.292 407.111 C 313.072 410.075 319.908 412.296 327.8 413.778 C 335.692 415.259 344.009 416 352.754 416 C 361.276 416 369.371 415.185 377.04 413.555 C 384.71 411.926 391.435 409.241 397.215 405.5 C 402.995 401.76 407.571 396.871 410.942 390.834 C 414.314 384.797 416 377.335 416 368.446 C 416 362.001 415.037 356.354 413.11 351.502 C 411.183 346.651 408.405 342.336 404.773 338.558 C 401.143 334.781 396.789 331.391 391.713 328.391 C 386.637 325.391 380.913 322.558 374.54 319.892 C 369.871 317.966 365.685 316.096 361.979 314.281 C 358.274 312.466 355.125 310.614 352.531 308.726 C 349.938 306.837 347.937 304.837 346.529 302.726 C 345.121 300.614 344.417 298.226 344.417 295.559 C 344.417 293.115 345.047 290.911 346.307 288.948 C 347.567 286.985 349.345 285.3 351.642 283.893 C 353.94 282.486 356.755 281.393 360.089 280.615 C 363.425 279.837 367.129 279.449 371.205 279.449 C 374.169 279.449 377.3 279.671 380.597 280.115 C 383.895 280.56 387.211 281.245 390.546 282.17 C 393.881 283.097 397.122 284.264 400.272 285.67 C 403.421 287.078 406.33 288.707 408.997 290.56 L 408.997 257.338 C 403.588 255.264 397.678 253.727 391.268 252.727 C 384.859 251.727 377.504 251.227 369.205 251.227 C 360.756 251.227 352.754 252.135 345.195 253.95 C 337.637 255.764 330.987 258.597 325.243 262.449 C 319.5 266.301 314.962 271.208 311.627 277.171 C 308.293 283.134 306.625 290.263 306.625 298.559 C 306.625 309.151 309.682 318.188 315.795 325.67 C 321.908 333.151 331.19 339.484 343.639 344.669 C 348.53 346.669 353.087 348.631 357.311 350.558 C 361.535 352.484 365.185 354.484 368.259 356.558 C 371.335 358.631 373.761 360.891 375.54 363.335 C 377.319 365.779 378.208 368.557 378.208 371.668 C 378.208 373.964 377.652 376.094 376.54 378.057 C 375.429 380.02 373.743 381.723 371.483 383.168 C 369.223 384.612 366.407 385.741 363.036 386.556 C 359.663 387.371 355.718 387.778 351.197 387.778 C 343.491 387.778 335.859 386.427 328.3 383.723 C 320.741 381.02 313.739 376.964 307.292 371.557 L 307.292 371.557 Z  M 247.52 283.956 L 293.131 283.956 L 293.131 254.778 L 166 254.778 L 166 283.956 L 211.388 283.956 L 211.388 413.869 L 247.52 413.869 L 247.52 283.956 Z " fill-rule="evenodd" fill="rgb(255,255,255)"/></g></svg>