<?xml version="1.0" encoding="UTF-8" standalone="no"?><!-- Generator: Gravit.io --><svg xmlns="http://www.w3.org/2000/svg" xmlns:xlink="http://www.w3.org/1999/xlink" style="isolation:isolate" viewBox="0 0 512 512" width="512pt" height="512pt"><defs><clipPath id="_clipPath_3wu98LfX4dMxf04TbiNCHV3VTBRiOiFB"><rect width="512" height="512"/></clipPath></defs><g clip-path="url(#_clipPath_3wu98LfX4dMxf04TbiNCHV3VTBRiOiFB)"><rect width="512" height="512" style="fill:rgb(0,0,0)" fill-opacity="0"/><path d="M 96 32 L 416 32 C 451.323 32 480 60.677 480 96 L 480 416 C 480 451.323 451.323 480 416 480 L 96 480 C 60.677 480 32 451.323 32 416 L 32 96 C 32 60.677 60.677 32 96 32 Z" style="stroke:none;fill:#654FF0;stroke-miterlimit:10;"/><path d=" M 168.544 288 L 192.721 288 L 209.227 375.906 L 209.525 375.906 L 229.363 288 L 251.979 288 L 269.897 376.985 L 270.249 376.985 L 289.062 288 L 312.774 288 L 281.962 417.168 L 257.97 417.168 L 240.2 329.262 L 239.735 329.262 L 220.714 417.168 L 196.274 417.168 L 168.544 288 Z  M 340.034 288 L 378.148 288 L 416 417.168 L 391.059 417.168 L 382.827 388.424 L 339.408 388.424 L 333.054 417.168 L 308.763 417.168 L 340.034 288 Z  M 354.543 319.837 L 343.998 367.227 L 376.819 367.227 L 364.712 319.837 L 354.543 319.837 Z " fill="rgb(255,255,255)"/><path d=" M 192 32 L 192 32 C 192 67.323 220.677 96 256 96 C 291.323 96 320 67.323 320 32 L 320 32 L 192 32 Z " fill="rgb(255,255,255)"/></g></svg>