<?xml version="1.0" encoding="UTF-8" standalone="no"?><!-- Generator: Gravit.io --><svg xmlns="http://www.w3.org/2000/svg" xmlns:xlink="http://www.w3.org/1999/xlink" style="isolation:isolate" viewBox="0 0 512 512" width="512pt" height="512pt"><defs><clipPath id="_clipPath_Q0IFvF0mfiG8ioblCOjeUYiHWrQHBWLo"><rect width="512" height="512"/></clipPath></defs><g clip-path="url(#_clipPath_Q0IFvF0mfiG8ioblCOjeUYiHWrQHBWLo)"><linearGradient id="_lgradient_19" x1="0.5" y1="1" x2="0.49999999999999983" y2="0" gradientTransform="matrix(384.238,0,0,192.045,63.762,256)" gradientUnits="userSpaceOnUse"><stop offset="1.6666666666666667%" stop-opacity="1" style="stop-color:rgb(1,174,254)"/><stop offset="100%" stop-opacity="1" style="stop-color:rgb(148,93,254)"/></linearGradient><path d=" M 256 256 Q 57 451 64 448 Q 71 445 448 448 L 256 256 Z " fill="url(#_lgradient_19)"/><linearGradient id="_lgradient_20" x1="0" y1="0.5" x2="1" y2="0.5" gradientTransform="matrix(384,0,0,384,64,64)" gradientUnits="userSpaceOnUse"><stop offset="0%" stop-opacity="1" style="stop-color:rgb(199,87,188)"/><stop offset="98.33333333333333%" stop-opacity="1" style="stop-color:rgb(255,137,1)"/></linearGradient><path d=" M 64 256 L 64 448 L 448 64 L 256 64 L 64 256 Z " fill="url(#_lgradient_20)"/><path d=" M 64 176 C 64 167.169 71.169 160 80 160 C 88.831 160 96 167.169 96 176 C 96 184.831 88.831 192 80 192 C 71.169 192 64 184.831 64 176 L 64 176 Z  M 160 64 L 192 64 L 192 96 L 160 96 L 160 64 L 160 64 Z  M 124.686 120 L 112 120 C 107.585 120 104 116.415 104 112 L 104 112 C 104 107.585 107.585 104 112 104 L 144 104 L 144 104 L 144 104 L 144 104 C 148.415 104 152 107.585 152 112 L 152 112 L 152 112 L 152 144 C 152 148.415 148.415 152 144 152 L 144 152 C 139.585 152 136 148.415 136 144 L 136 131.314 L 112.402 154.912 C 109.28 158.034 104.21 158.034 101.088 154.912 L 101.088 154.912 C 97.966 151.79 97.966 146.72 101.088 143.598 L 124.686 120 Z " fill-rule="evenodd" fill="rgb(255,255,255)" vector-effect="non-scaling-stroke" stroke-width="4" stroke="rgb(93,93,93)" stroke-linejoin="miter" stroke-linecap="square" stroke-miterlimit="3"/></g></svg>