<?xml version="1.0" encoding="UTF-8" standalone="no"?><!-- Generator: Gravit.io --><svg xmlns="http://www.w3.org/2000/svg" xmlns:xlink="http://www.w3.org/1999/xlink" style="isolation:isolate" viewBox="0 0 512 512" width="512pt" height="512pt"><defs><clipPath id="_clipPath_sV4SDS32ATaFP6xYtLuyolG1w0ky87np"><rect width="512" height="512"/></clipPath></defs><g clip-path="url(#_clipPath_sV4SDS32ATaFP6xYtLuyolG1w0ky87np)"><linearGradient id="_lgradient_1" x1="0" y1="0.5" x2="1" y2="0.5" gradientTransform="matrix(384,0,0,384,64,64)" gradientUnits="userSpaceOnUse"><stop offset="0%" stop-opacity="1" style="stop-color:rgb(80,115,184)"/><stop offset="100%" stop-opacity="1" style="stop-color:rgb(16,152,173)"/></linearGradient><path d=" M 208 313.37 L 208 232 C 208 225.64 205.47 219.53 200.97 215.03 C 196.47 210.53 190.36 208 184 208 L 80 208 L 80 144 L 192 144 L 320 144 L 432 144 L 432 208 L 328 208 C 321.64 208 315.53 210.53 311.03 215.03 C 306.53 219.53 304 225.64 304 232 L 304 313.37 L 278.63 288 C 278.63 288 278.63 288 278.62 288 C 272.63 282 264.48 278.63 256 278.63 C 247.52 278.63 239.37 282 233.38 288 C 233.37 288 233.37 288 233.37 288 L 208 313.37 L 208 313.37 L 208 313.37 Z  M 416 248 L 416 256 L 416 264 L 416 432 C 416 440.831 408.831 448 400 448 L 112 448 C 103.169 448 96 440.831 96 432 L 96 264 L 96 256 L 96 256 L 96 248 C 96 243.585 99.585 240 104 240 C 108.415 240 112 243.585 112 248 L 112 256 L 112 264 L 112 272 L 112 352 L 112 432 L 400 432 L 400 352 L 400 272 L 400 264 L 400 256 L 400 248 C 400 243.585 403.585 240 408 240 C 412.415 240 416 243.585 416 248 L 416 248 L 416 248 Z  M 320 128 L 432 128 C 440.831 128 448 135.169 448 144 L 448 216 C 448 220.415 444.415 224 440 224 L 328 224 C 323.585 224 320 227.585 320 232 L 320 336 C 320 344.831 314.931 346.931 308.686 340.686 L 267.314 299.314 C 261.069 293.069 250.93 293.069 244.686 299.314 L 203.314 340.686 C 197.07 346.931 192 344.831 192 336 L 192 232 C 192 227.585 188.415 224 184 224 L 72 224 C 67.585 224 64 220.415 64 216 L 64 144 C 64 135.169 71.169 128 80 128 L 192 128 L 320 128 L 320 128 L 320 128 Z  M 234.16 96.165 L 192 96.165 C 189.88 96.165 187.84 95.327 186.34 93.831 C 184.84 92.334 184 90.3 184 88.185 C 184 86.001 184.9 83.906 186.49 82.4 C 188.09 80.894 190.23 80.106 192.42 80.216 C 194.97 80.016 197.53 80.046 200.07 80.305 C 202.58 80.565 205.07 81.024 207.51 81.672 C 210.27 82.42 212.96 83.378 215.57 84.555 C 218.8 86.001 221.93 87.676 224.93 89.562 C 226.21 90.37 227.48 91.217 228.73 92.085 C 230.1 93.053 231.45 94.05 232.77 95.077 C 233.24 95.437 233.7 95.796 234.16 96.165 L 234.16 96.165 L 234.16 96.165 Z  M 277.84 96.124 L 320 96.124 C 322.12 96.124 324.16 95.284 325.66 93.784 C 327.16 92.284 328 90.244 328 88.124 C 328 85.934 327.1 83.834 325.51 82.324 C 323.91 80.814 321.77 80.024 319.58 80.134 C 317.03 79.934 314.47 79.964 311.93 80.224 C 309.42 80.484 306.93 80.944 304.49 81.594 C 301.73 82.344 299.04 83.304 296.43 84.484 C 293.2 85.934 290.07 87.614 287.07 89.504 C 285.79 90.314 284.52 91.164 283.27 92.034 C 281.9 93.004 280.55 94.004 279.23 95.034 C 278.76 95.394 278.3 95.754 277.84 96.124 L 277.84 96.124 L 277.84 96.124 Z  M 255.977 94.283 Q 223.507 62.196 192 64.247 L 192 64.247 L 192 64.247 C 178.754 64.247 168 74.973 168 88.185 C 168 101.397 178.754 112.124 192 112.124 L 192 112.124 L 192 112.124 L 240 112.124 L 240 112.124 L 320 112.124 L 320 112.124 L 320 112.124 C 333.246 112.124 344 101.37 344 88.124 C 344 74.878 333.246 64.124 320 64.124 L 320 64.124 L 320 64.124 Q 288.47 62.066 255.977 94.283 L 255.977 94.283 Z " fill-rule="evenodd" fill="url(#_lgradient_1)"/></g></svg>