<?xml version="1.0" encoding="UTF-8" standalone="no"?><!DOCTYPE svg PUBLIC "-//W3C//DTD SVG 1.1//EN" "http://www.w3.org/Graphics/SVG/1.1/DTD/svg11.dtd"><svg width="100%" height="100%" viewBox="0 0 2134 2134" version="1.1" xmlns="http://www.w3.org/2000/svg" xmlns:xlink="http://www.w3.org/1999/xlink" xml:space="preserve" xmlns:serif="http://www.serif.com/" style="fill-rule:evenodd;clip-rule:evenodd;stroke-linecap:round;stroke-linejoin:round;stroke-miterlimit:3;"><g><path d="M1084.27,266.667l-35.2,-0c-88.367,-0 -160,71.633 -160,160l-0,14.4c-0.059,57.104 -30.546,109.85 -80,138.4l-34.4,20c-49.505,28.579 -110.496,28.579 -160,-0l-12,-6.4c-76.446,-44.1 -174.167,-17.971 -218.4,58.4l-17.6,30.4c-44.1,76.446 -17.971,174.166 58.4,218.4l12,8c49.208,28.408 79.658,80.783 80,137.6l-0,40.8c0.229,57.387 -30.3,110.504 -80,139.2l-12,7.2c-76.371,44.233 -102.5,141.954 -58.4,218.4l17.6,30.4c44.233,76.37 141.954,102.5 218.4,58.4l12,-6.4c49.504,-28.58 110.495,-28.58 160,-0l34.4,20c49.454,28.55 79.941,81.295 80,138.4l-0,14.4c-0,88.366 71.633,160 160,160l35.2,-0c88.366,-0 160,-71.634 160,-160l-0,-14.4c0.058,-57.105 30.545,-109.85 80,-138.4l34.4,-20c49.504,-28.58 110.495,-28.58 160,-0l12,6.4c76.446,44.1 174.166,17.97 218.4,-58.4l17.6,-31.2c44.1,-76.446 17.97,-174.167 -58.4,-218.4l-12,-6.4c-49.7,-28.696 -80.229,-81.813 -80,-139.2l-0,-40c-0.229,-57.388 30.3,-110.504 80,-139.2l12,-7.2c76.37,-44.234 102.5,-141.954 58.4,-218.4l-17.6,-30.4c-44.234,-76.371 -141.955,-102.5 -218.4,-58.4l-12,6.4c-49.505,28.579 -110.496,28.579 -160,-0l-34.4,-20c-49.455,-28.55 -79.942,-81.296 -80,-138.4l-0,-14.4c-0,-88.367 -71.634,-160 -160,-160Z" style="fill:none;fill-rule:nonzero;stroke:#fff;stroke-width:8.33px;"/><circle cx="1066.67" cy="1066.67" r="240" style="fill:none;stroke:#fff;stroke-width:8.33px;"/></g></svg>