<?xml version="1.0" encoding="UTF-8" standalone="no"?><!-- Generator: Gravit.io --><svg xmlns="http://www.w3.org/2000/svg" xmlns:xlink="http://www.w3.org/1999/xlink" style="isolation:isolate" viewBox="0 0 2720 512" width="2720pt" height="512pt"><defs><clipPath id="_clipPath_1WZcf1zli3kDMs3uJBiySwxGYjmKyz3j"><rect width="2720" height="512"/></clipPath></defs><g clip-path="url(#_clipPath_1WZcf1zli3kDMs3uJBiySwxGYjmKyz3j)"><path d=" M 169.5 256 C 169.5 203.016 212.516 160 265.5 160 C 318.484 160 361.5 203.016 361.5 256 C 361.5 308.984 318.484 352 265.5 352 C 212.516 352 169.5 308.984 169.5 256 L 169.5 256 L 169.5 256 L 169.5 256 Z  M 585.5 386.788 C 585.5 402.911 572.411 416 556.288 416 L 550.712 416 C 534.589 416 521.5 402.911 521.5 386.788 L 521.5 256 L 521.5 256 L 521.5 256 C 521.5 167.694 593.194 96 681.5 96 C 769.806 96 841.5 167.694 841.5 256 L 841.5 386.788 C 841.5 402.911 828.411 416 812.288 416 L 806.712 416 C 790.589 416 777.5 402.911 777.5 386.788 L 777.5 386.788 L 777.5 383.975 L 777.5 383.975 L 777.5 256 C 777.5 203.016 734.484 160 681.5 160 C 628.516 160 585.5 203.016 585.5 256 L 585.5 383.975 L 585.5 386.788 L 585.5 386.788 L 585.5 386.788 Z  M 905.5 96 L 905.5 96 C 923.161 96 937.5 110.339 937.5 128 L 937.5 384 C 937.5 401.661 923.161 416 905.5 416 L 905.5 416 C 887.839 416 873.5 401.661 873.5 384 L 873.5 128 C 873.5 110.339 887.839 96 905.5 96 L 905.5 96 Z  M 105.5 256 C 105.5 167.694 177.194 96 265.5 96 C 353.806 96 425.5 167.694 425.5 256 C 425.5 344.306 353.806 416 265.5 416 C 177.194 416 105.5 344.306 105.5 256 L 105.5 256 L 105.5 256 L 105.5 256 L 105.5 256 Z  M 41.5 256 C 41.5 132.371 141.871 32 265.5 32 C 389.129 32 489.5 132.371 489.5 256 C 489.5 379.629 389.129 480 265.5 480 C 141.871 480 41.5 379.629 41.5 256 L 41.5 256 L 41.5 256 L 41.5 256 L 41.5 256 Z  M 1129.5 210.74 L 1024.13 105.37 C 1018.13 99.37 1009.98 96 1001.5 96 C 993.02 96 984.87 99.37 978.87 105.37 C 972.87 111.37 969.5 119.52 969.5 128 C 969.5 136.48 972.87 144.63 978.87 150.63 L 1084.24 256 L 978.87 361.37 C 972.87 367.37 969.5 375.52 969.5 384 C 969.5 392.48 972.87 400.63 978.87 406.63 C 984.87 412.63 993.02 416 1001.5 416 C 1009.98 416 1018.13 412.63 1024.13 406.63 L 1129.5 301.26 L 1234.87 406.63 C 1240.87 412.63 1249.02 416 1257.5 416 C 1265.98 416 1274.13 412.63 1280.13 406.63 C 1286.13 400.63 1289.5 392.48 1289.5 384 C 1289.5 375.52 1286.13 367.37 1280.13 361.37 L 1174.76 256 L 1280.13 150.63 C 1286.13 144.63 1289.5 136.48 1289.5 128 C 1289.5 119.52 1286.13 111.37 1280.13 105.37 C 1274.13 99.37 1265.98 96 1257.5 96 C 1249.02 96 1240.87 99.37 1234.87 105.37 L 1129.5 210.74 Z " fill-rule="evenodd" fill="rgb(0,0,0)"/><path d=" M 1385.5 352 L 1385.5 128 C 1385.5 110.339 1371.161 96 1353.5 96 L 1353.5 96 C 1335.839 96 1321.5 110.339 1321.5 128 L 1321.5 352 L 1321.5 384 C 1321.5 401.661 1335.839 416 1353.5 416 L 1385.5 416 L 1609.5 416 C 1627.161 416 1641.5 401.661 1641.5 384 L 1641.5 384 C 1641.5 366.339 1627.161 352 1609.5 352 L 1385.5 352 L 1385.5 352 L 1385.5 352 Z  M 1737.5 256 C 1737.5 203.016 1780.516 160 1833.5 160 C 1886.484 160 1929.5 203.016 1929.5 256 C 1929.5 308.984 1886.484 352 1833.5 352 C 1780.516 352 1737.5 308.984 1737.5 256 L 1737.5 256 L 1737.5 256 L 1737.5 256 Z  M 2454.5 160 L 2454.5 160 C 2436.839 160 2422.5 174.339 2422.5 192 L 2422.5 192 C 2422.5 209.661 2436.839 224 2454.5 224 L 2454.5 224 L 2545.029 224 L 2545.029 224 L 2582.5 224 L 2582.5 224 C 2635.484 224 2678.5 267.016 2678.5 320 C 2678.5 372.984 2635.484 416 2582.5 416 L 2390.5 416 C 2372.839 416 2358.5 401.661 2358.5 384 L 2358.5 384 C 2358.5 366.339 2372.839 352 2390.5 352 L 2491.971 352 L 2491.971 352 L 2582.5 352 C 2600.161 352 2614.5 337.661 2614.5 320 C 2614.5 302.339 2600.161 288 2582.5 288 L 2491.971 288 L 2454.5 288 C 2401.516 288 2358.5 244.984 2358.5 192 L 2358.5 192 C 2358.5 139.016 2401.516 96 2454.5 96 L 2454.5 96 L 2486.5 96 L 2518.5 96 L 2550.5 96 C 2568.161 96 2582.5 110.339 2582.5 128 L 2582.5 128 C 2582.5 145.661 2568.161 160 2550.5 160 L 2545.029 160 L 2518.5 160 L 2454.5 160 L 2454.5 160 Z  M 1993.5 256 C 1993.5 167.694 1921.806 96 1833.5 96 C 1745.194 96 1673.5 167.694 1673.5 256 L 1673.5 256 L 1673.5 256 L 1673.5 384 C 1673.5 401.661 1687.839 416 1705.5 416 L 1705.5 416 C 1723.161 416 1737.5 401.661 1737.5 384 L 1737.5 383.975 C 1764.249 404.08 1797.493 416 1833.5 416 C 1869.507 416 1902.751 404.08 1929.5 383.975 L 1929.5 384 C 1929.5 401.661 1943.839 416 1961.5 416 L 1961.5 416 C 1979.161 416 1993.5 401.661 1993.5 384 L 1993.5 256 L 1993.5 256 L 1993.5 256 L 1993.5 256 Z  M 2089.5 224 L 2185.5 224 C 2203.161 224 2217.5 209.661 2217.5 192 C 2217.5 174.339 2203.161 160 2185.5 160 L 2185.5 160 L 2185.5 160 L 2185.5 160 L 2185.5 160 L 2089.5 160 L 2089.5 224 L 2089.5 224 Z  M 2089.5 352 L 2249.5 352 C 2267.161 352 2281.5 337.661 2281.5 320 C 2281.5 302.339 2267.161 288 2249.5 288 L 2249.5 288 L 2249.5 288 L 2249.5 288 L 2089.5 288 L 2089.5 352 L 2089.5 352 Z  M 2057.5 416 L 2089.5 416 L 2185.5 416 L 2185.5 416 L 2185.5 416 L 2249.5 416 C 2302.484 416 2345.5 372.984 2345.5 320 C 2345.5 275.761 2315.511 238.47 2274.767 227.376 C 2279.11 216.425 2281.5 204.49 2281.5 192 C 2281.5 139.016 2238.484 96 2185.5 96 L 2185.5 96 L 2089.5 96 L 2057.5 96 L 2057.5 96 C 2039.839 96 2025.5 110.339 2025.5 128 L 2025.5 384 C 2025.5 401.661 2039.839 416 2057.5 416 L 2057.5 416 Z " fill-rule="evenodd" fill="rgb(0,0,0)" fill-opacity="0.5"/></g></svg>