<?xml version="1.0" encoding="UTF-8" standalone="no"?><!-- Generator: Gravit.io --><svg xmlns="http://www.w3.org/2000/svg" xmlns:xlink="http://www.w3.org/1999/xlink" style="isolation:isolate" viewBox="0 0 512 512" width="512pt" height="512pt"><defs><clipPath id="_clipPath_01HFMl1JoavREprPHu7qwwH1w49lpaBI"><rect width="512" height="512"/></clipPath></defs><g clip-path="url(#_clipPath_01HFMl1JoavREprPHu7qwwH1w49lpaBI)"><rect width="512" height="512" style="fill:rgb(0,0,0)" fill-opacity="0"/><g><path d=" M 260.224 64 L 251.776 64 C 230.568 64 213.376 81.192 213.376 102.4 L 213.376 105.856 C 213.362 119.561 206.045 132.22 194.176 139.072 L 185.92 143.872 C 174.039 150.732 159.401 150.732 147.52 143.872 L 144.64 142.336 C 126.293 131.752 102.84 138.023 92.224 156.352 L 88 163.648 C 77.416 181.995 83.687 205.448 102.016 216.064 L 104.896 217.984 C 116.706 224.802 124.014 237.372 124.096 251.008 L 124.096 260.8 C 124.151 274.573 116.824 287.321 104.896 294.208 L 102.016 295.936 C 83.687 306.552 77.416 330.005 88 348.352 L 92.224 355.648 C 102.84 373.977 126.293 380.248 144.64 369.664 L 147.52 368.128 C 159.401 361.269 174.039 361.269 185.92 368.128 L 194.176 372.928 C 206.045 379.78 213.362 392.439 213.376 406.144 L 213.376 409.6 C 213.376 430.808 230.568 448 251.776 448 L 260.224 448 C 281.432 448 298.624 430.808 298.624 409.6 L 298.624 406.144 C 298.638 392.439 305.955 379.78 317.824 372.928 L 326.08 368.128 C 337.961 361.269 352.599 361.269 364.48 368.128 L 367.36 369.664 C 385.707 380.248 409.16 373.977 419.776 355.648 L 424 348.16 C 434.584 329.813 428.313 306.36 409.984 295.744 L 407.104 294.208 C 395.176 287.321 387.849 274.573 387.904 260.8 L 387.904 251.2 C 387.849 237.427 395.176 224.679 407.104 217.792 L 409.984 216.064 C 428.313 205.448 434.584 181.995 424 163.648 L 419.776 156.352 C 409.16 138.023 385.707 131.752 367.36 142.336 L 364.48 143.872 C 352.599 150.732 337.961 150.732 326.08 143.872 L 317.824 139.072 C 305.955 132.22 298.638 119.561 298.624 105.856 L 298.624 102.4 C 298.624 81.192 281.432 64 260.224 64 Z " fill="none" vector-effect="non-scaling-stroke" stroke-width="2" stroke="rgb(255,255,255)" stroke-linejoin="round" stroke-linecap="round" stroke-miterlimit="3"/><path d=" M 198.4 256 C 198.4 224.21 224.21 198.4 256 198.4 C 287.79 198.4 313.6 224.21 313.6 256 C 313.6 287.79 287.79 313.6 256 313.6 C 224.21 313.6 198.4 287.79 198.4 256 Z " fill="none" vector-effect="non-scaling-stroke" stroke-width="2" stroke="rgb(255,255,255)" stroke-linejoin="round" stroke-linecap="round" stroke-miterlimit="3"/></g></g></svg>