<?xml version="1.0" encoding="UTF-8" standalone="no"?><!DOCTYPE svg PUBLIC "-//W3C//DTD SVG 1.1//EN" "http://www.w3.org/Graphics/SVG/1.1/DTD/svg11.dtd"><svg width="100%" height="100%" viewBox="0 0 512 512" version="1.1" xmlns="http://www.w3.org/2000/svg" xmlns:xlink="http://www.w3.org/1999/xlink" xml:space="preserve" xmlns:serif="http://www.serif.com/" style="fill-rule:evenodd;clip-rule:evenodd;stroke-linecap:round;stroke-linejoin:round;stroke-miterlimit:1.5;"><g><path d="M160,224l0,64c0,17.661 -14.339,32 -32,32l-64,0c-17.661,0 -32,-14.339 -32,-32l0,-64c0,-17.661 14.339,-32 32,-32l64,0c17.661,0 32,14.339 32,32Z" style="fill:none;stroke:#fff;stroke-width:2.08px;"/><circle cx="416" cy="96" r="64" style="fill:none;stroke:#fff;stroke-width:2.08px;"/><path d="M416,352l64,128l-128,0l64,-128Z" style="fill:none;stroke:#fff;stroke-width:2.08px;"/><g><path d="M192,256l14,0c13.261,-0 25.979,-5.268 35.355,-14.645c9.377,-9.376 14.645,-22.094 14.645,-35.355c0,-19.11 0,-40.89 0,-60c-0,-13.261 5.268,-25.979 14.645,-35.355c9.376,-9.377 22.094,-14.645 35.355,-14.645c8.156,0 14,0 14,0" style="fill:none;stroke:#fff;stroke-width:2.08px;"/><path d="M288,64l32,32l-32,32" style="fill:none;stroke:#fff;stroke-width:2.08px;"/></g><g><path d="M192,256l14,0c13.261,0 25.979,5.268 35.355,14.645c9.377,9.376 14.645,22.094 14.645,35.355c0,19.11 0,40.89 0,60c-0,13.261 5.268,25.979 14.645,35.355c9.376,9.377 22.094,14.645 35.355,14.645c8.156,0 14,0 14,0" style="fill:none;stroke:#fff;stroke-width:2.08px;"/><path d="M288,448l32,-32l-32,-32" style="fill:none;stroke:#fff;stroke-width:2.08px;"/></g></g></svg>