<?xml version="1.0" encoding="UTF-8" standalone="no"?><!-- Generator: Gravit.io --><svg xmlns="http://www.w3.org/2000/svg" xmlns:xlink="http://www.w3.org/1999/xlink" style="isolation:isolate" viewBox="0 0 512 512" width="512pt" height="512pt"><defs><clipPath id="_clipPath_R4eAinKc9SDtNzDHJI7nY6pSxpsjlHqV"><rect width="512" height="512"/></clipPath></defs><g clip-path="url(#_clipPath_R4eAinKc9SDtNzDHJI7nY6pSxpsjlHqV)"><linearGradient id="_lgradient_14" x1="0.5" y1="1" x2="0.49999999999999983" y2="0" gradientTransform="matrix(384.238,0,0,192.045,63.762,256)" gradientUnits="userSpaceOnUse"><stop offset="1.6666666666666667%" stop-opacity="1" style="stop-color:rgb(1,174,254)"/><stop offset="100%" stop-opacity="1" style="stop-color:rgb(148,93,254)"/></linearGradient><path d=" M 256 256 Q 57 451 64 448 Q 71 445 448 448 L 256 256 Z " fill="url(#_lgradient_14)"/><linearGradient id="_lgradient_15" x1="0" y1="0.5" x2="1" y2="0.5" gradientTransform="matrix(384,0,0,384,64,64)" gradientUnits="userSpaceOnUse"><stop offset="0%" stop-opacity="1" style="stop-color:rgb(199,87,188)"/><stop offset="98.33333333333333%" stop-opacity="1" style="stop-color:rgb(255,137,1)"/></linearGradient><path d=" M 64 256 L 64 448 L 448 64 L 256 64 L 64 256 Z " fill="url(#_lgradient_15)"/><path d=" M 137.817 142.651 Q 146.188 145.951 148.171 143.69 C 150.938 140.535 153.3 137.015 155.174 133.212 Q 156.516 130.488 150.24 124.037 C 151.104 121.293 151.681 118.422 151.935 115.46 Q 160.196 111.904 159.995 108.826 C 159.715 104.53 158.869 100.387 157.533 96.472 Q 156.575 93.667 147.566 93.511 C 146.197 90.885 144.545 88.428 142.651 86.183 Q 145.951 77.812 143.69 75.829 C 140.535 73.062 137.015 70.7 133.212 68.826 Q 130.488 67.484 124.037 73.76 C 121.293 72.896 118.422 72.319 115.46 72.065 Q 111.904 63.804 108.826 64.005 C 104.53 64.285 100.388 65.131 96.472 66.467 Q 93.667 67.425 93.511 76.434 C 90.885 77.803 88.428 79.455 86.183 81.349 Q 77.812 78.049 75.829 80.31 C 73.062 83.465 70.7 86.985 68.827 90.788 Q 67.484 93.512 73.76 99.963 C 72.896 102.707 72.319 105.578 72.065 108.54 Q 63.804 112.096 64.005 115.174 C 64.285 119.47 65.131 123.613 66.467 127.528 Q 67.425 130.333 76.434 130.489 C 77.803 133.115 79.455 135.572 81.349 137.817 Q 78.049 146.188 80.31 148.171 C 83.465 150.938 86.985 153.3 90.788 155.173 Q 93.512 156.516 99.963 150.24 C 102.707 151.104 105.578 151.681 108.54 151.935 Q 112.096 160.196 115.174 159.995 C 119.47 159.715 123.613 158.869 127.528 157.533 Q 130.333 156.575 130.489 147.566 C 133.115 146.197 135.572 144.545 137.817 142.651 L 137.817 142.651 Z  M 95.967 112 C 95.967 103.151 103.151 95.967 112 95.967 C 120.849 95.967 128.033 103.151 128.033 112 C 128.033 120.849 120.849 128.033 112 128.033 C 103.151 128.033 95.967 120.849 95.967 112 L 95.967 112 Z " fill-rule="evenodd" fill="rgb(255,255,255)" vector-effect="non-scaling-stroke" stroke-width="4" stroke="rgb(93,93,93)" stroke-linejoin="miter" stroke-linecap="square" stroke-miterlimit="3"/></g></svg>