<?xml version="1.0" encoding="UTF-8" standalone="no"?><!-- Generator: Gravit.io --><svg xmlns="http://www.w3.org/2000/svg" xmlns:xlink="http://www.w3.org/1999/xlink" style="isolation:isolate" viewBox="0 0 3840 1024" width="3840pt" height="1024pt"><defs><clipPath id="_clipPath_TX1HqAQXraz74eBlHu6yACAZ3tQxU5b8"><rect width="3840" height="1024"/></clipPath></defs><g clip-path="url(#_clipPath_TX1HqAQXraz74eBlHu6yACAZ3tQxU5b8)"><linearGradient id="_lgradient_4" x1="0" y1="0.5" x2="1" y2="0.5"><stop offset="0%" style="stop-color:#F79533"/><stop offset="15.833333333333332%" style="stop-color:#F37055"/><stop offset="30%" style="stop-color:#EF4E7B"/><stop offset="43.75%" style="stop-color:#A166AB"/><stop offset="57.91666666666667%" style="stop-color:#5073B8"/><stop offset="70.83333333333334%" style="stop-color:#1098AD"/><stop offset="85.41666666666666%" style="stop-color:#07B39B"/><stop offset="98.33333333333333%" style="stop-color:#6FBA82"/></linearGradient><rect width="3840" height="1024" style="fill:url(#_lgradient_4);"/><linearGradient id="_lgradient_5" x1="0.5" y1="1" x2="0.49999999999999983" y2="0" gradientTransform="matrix(3840,0,0,1024,0,0)" gradientUnits="userSpaceOnUse"><stop offset="0%" stop-opacity="0" style="stop-color:rgb(235,235,235)"/><stop offset="100%" stop-opacity="1" style="stop-color:rgb(255,255,255)"/></linearGradient><rect x="0" y="0" width="3840" height="1024" transform="matrix(1,0,0,1,0,0)" fill="url(#_lgradient_5)"/><g><path d=" M 1312.109 512 C 1312.109 484.945 1334.074 462.981 1361.128 462.981 C 1388.183 462.981 1410.148 484.945 1410.148 512 C 1410.148 539.055 1388.183 561.019 1361.128 561.019 C 1334.074 561.019 1312.109 539.055 1312.109 512 L 1312.109 512 L 1312.109 512 L 1312.109 512 Z  M 1524.526 578.783 C 1524.526 587.015 1517.843 593.699 1509.61 593.699 L 1506.763 593.699 C 1498.53 593.699 1491.847 587.015 1491.847 578.783 L 1491.847 512 L 1491.847 512 L 1491.847 512 C 1491.847 466.909 1528.455 430.301 1573.546 430.301 C 1618.636 430.301 1655.245 466.909 1655.245 512 L 1655.245 578.783 C 1655.245 587.015 1648.561 593.699 1640.328 593.699 L 1637.481 593.699 C 1629.249 593.699 1622.565 587.015 1622.565 578.783 L 1622.565 578.783 L 1622.565 577.346 L 1622.565 577.346 L 1622.565 512 C 1622.565 484.945 1600.6 462.981 1573.546 462.981 C 1546.491 462.981 1524.526 484.945 1524.526 512 L 1524.526 577.346 L 1524.526 578.783 L 1524.526 578.783 L 1524.526 578.783 Z  M 1687.924 430.301 L 1687.924 430.301 C 1696.942 430.301 1704.264 437.623 1704.264 446.641 L 1704.264 577.359 C 1704.264 586.377 1696.942 593.699 1687.924 593.699 L 1687.924 593.699 C 1678.906 593.699 1671.584 586.377 1671.584 577.359 L 1671.584 446.641 C 1671.584 437.623 1678.906 430.301 1687.924 430.301 L 1687.924 430.301 Z  M 1279.43 512 C 1279.43 466.909 1316.038 430.301 1361.128 430.301 C 1406.219 430.301 1442.827 466.909 1442.827 512 C 1442.827 557.091 1406.219 593.699 1361.128 593.699 C 1316.038 593.699 1279.43 557.091 1279.43 512 L 1279.43 512 L 1279.43 512 L 1279.43 512 L 1279.43 512 Z  M 1246.75 512 C 1246.75 448.873 1298.001 397.622 1361.128 397.622 C 1424.256 397.622 1475.507 448.873 1475.507 512 C 1475.507 575.127 1424.256 626.378 1361.128 626.378 C 1298.001 626.378 1246.75 575.127 1246.75 512 L 1246.75 512 L 1246.75 512 L 1246.75 512 L 1246.75 512 Z  M 1802.303 488.889 L 1748.499 435.086 C 1745.435 432.022 1741.273 430.301 1736.943 430.301 C 1732.613 430.301 1728.452 432.022 1725.388 435.086 C 1722.324 438.149 1720.604 442.311 1720.604 446.641 C 1720.604 450.971 1722.324 455.132 1725.388 458.196 L 1779.192 512 L 1725.388 565.804 C 1722.324 568.868 1720.604 573.029 1720.604 577.359 C 1720.604 581.689 1722.324 585.851 1725.388 588.914 C 1728.452 591.978 1732.613 593.699 1736.943 593.699 C 1741.273 593.699 1745.435 591.978 1748.499 588.914 L 1802.303 535.111 L 1856.106 588.914 C 1859.17 591.978 1863.332 593.699 1867.662 593.699 C 1871.992 593.699 1876.153 591.978 1879.217 588.914 C 1882.281 585.851 1884.001 581.689 1884.001 577.359 C 1884.001 573.029 1882.281 568.868 1879.217 565.804 L 1825.413 512 L 1879.217 458.196 C 1882.281 455.132 1884.001 450.971 1884.001 446.641 C 1884.001 442.311 1882.281 438.149 1879.217 435.086 C 1876.153 432.022 1871.992 430.301 1867.662 430.301 C 1863.332 430.301 1859.17 432.022 1856.106 435.086 L 1802.303 488.889 Z " fill-rule="evenodd" fill="rgb(255,255,255)"/><path d=" M 1933.021 561.019 L 1933.021 446.641 C 1933.021 437.623 1925.699 430.301 1916.681 430.301 L 1916.681 430.301 C 1907.663 430.301 1900.341 437.623 1900.341 446.641 L 1900.341 561.019 L 1900.341 577.359 C 1900.341 586.377 1907.663 593.699 1916.681 593.699 L 1933.021 593.699 L 2047.399 593.699 C 2056.417 593.699 2063.739 586.377 2063.739 577.359 L 2063.739 577.359 C 2063.739 568.341 2056.417 561.019 2047.399 561.019 L 1933.021 561.019 L 1933.021 561.019 L 1933.021 561.019 Z  M 2112.758 512 C 2112.758 484.945 2134.723 462.981 2161.778 462.981 C 2188.832 462.981 2210.797 484.945 2210.797 512 C 2210.797 539.055 2188.832 561.019 2161.778 561.019 C 2134.723 561.019 2112.758 539.055 2112.758 512 L 2112.758 512 L 2112.758 512 L 2112.758 512 Z  M 2478.872 462.981 L 2478.872 462.981 C 2469.853 462.981 2462.532 470.302 2462.532 479.32 L 2462.532 479.32 C 2462.532 488.339 2469.853 495.66 2478.872 495.66 L 2478.872 495.66 L 2525.097 495.66 L 2525.097 495.66 L 2544.231 495.66 L 2544.231 495.66 C 2571.285 495.66 2593.25 517.625 2593.25 544.68 C 2593.25 571.734 2571.285 593.699 2544.231 593.699 L 2446.192 593.699 C 2437.174 593.699 2429.852 586.377 2429.852 577.359 L 2429.852 577.359 C 2429.852 568.341 2437.174 561.019 2446.192 561.019 L 2498.005 561.019 L 2498.005 561.019 L 2544.231 561.019 C 2553.249 561.019 2560.57 553.698 2560.57 544.68 C 2560.57 535.661 2553.249 528.34 2544.231 528.34 L 2498.005 528.34 L 2478.872 528.34 C 2451.817 528.34 2429.852 506.375 2429.852 479.32 L 2429.852 479.32 C 2429.852 452.266 2451.817 430.301 2478.872 430.301 L 2478.872 430.301 L 2495.211 430.301 L 2511.551 430.301 L 2527.891 430.301 C 2536.909 430.301 2544.231 437.623 2544.231 446.641 L 2544.231 446.641 C 2544.231 455.659 2536.909 462.981 2527.891 462.981 L 2525.097 462.981 L 2511.551 462.981 L 2478.872 462.981 L 2478.872 462.981 Z  M 2243.477 512 C 2243.477 466.909 2206.869 430.301 2161.778 430.301 C 2116.687 430.301 2080.079 466.909 2080.079 512 L 2080.079 512 L 2080.079 512 L 2080.079 577.359 C 2080.079 586.377 2087.4 593.699 2096.419 593.699 L 2096.419 593.699 C 2105.437 593.699 2112.758 586.377 2112.758 577.359 L 2112.758 577.346 C 2126.417 587.613 2143.392 593.699 2161.778 593.699 C 2180.163 593.699 2197.139 587.613 2210.797 577.346 L 2210.797 577.359 C 2210.797 586.377 2218.119 593.699 2227.137 593.699 L 2227.137 593.699 C 2236.155 593.699 2243.477 586.377 2243.477 577.359 L 2243.477 512 L 2243.477 512 L 2243.477 512 L 2243.477 512 Z  M 2292.496 495.66 L 2341.515 495.66 C 2350.533 495.66 2357.855 488.339 2357.855 479.32 C 2357.855 470.302 2350.533 462.981 2341.515 462.981 L 2341.515 462.981 L 2341.515 462.981 L 2341.515 462.981 L 2341.515 462.981 L 2292.496 462.981 L 2292.496 495.66 L 2292.496 495.66 Z  M 2292.496 561.019 L 2374.195 561.019 C 2383.213 561.019 2390.535 553.698 2390.535 544.68 C 2390.535 535.661 2383.213 528.34 2374.195 528.34 L 2374.195 528.34 L 2374.195 528.34 L 2374.195 528.34 L 2292.496 528.34 L 2292.496 561.019 L 2292.496 561.019 Z  M 2276.156 593.699 L 2292.496 593.699 L 2341.515 593.699 L 2341.515 593.699 L 2341.515 593.699 L 2374.195 593.699 C 2401.249 593.699 2423.214 571.734 2423.214 544.68 C 2423.214 522.09 2407.901 503.049 2387.096 497.384 C 2389.314 491.792 2390.535 485.698 2390.535 479.32 C 2390.535 452.266 2368.57 430.301 2341.515 430.301 L 2341.515 430.301 L 2292.496 430.301 L 2276.156 430.301 L 2276.156 430.301 C 2267.138 430.301 2259.816 437.623 2259.816 446.641 L 2259.816 577.359 C 2259.816 586.377 2267.138 593.699 2276.156 593.699 L 2276.156 593.699 Z " fill-rule="evenodd" fill="rgb(255,255,255)" fill-opacity="0.4"/></g></g></svg>