<?xml version="1.0" encoding="UTF-8" standalone="no"?><!DOCTYPE svg PUBLIC "-//W3C//DTD SVG 1.1//EN" "http://www.w3.org/Graphics/SVG/1.1/DTD/svg11.dtd"><svg width="100%" height="100%" viewBox="0 0 2134 2134" version="1.1" xmlns="http://www.w3.org/2000/svg" xmlns:xlink="http://www.w3.org/1999/xlink" xml:space="preserve" xmlns:serif="http://www.serif.com/" style="fill-rule:evenodd;clip-rule:evenodd;stroke-linecap:round;stroke-linejoin:round;stroke-miterlimit:3;"><g><path d="M1706.56,1146.55c0,399.933 -279.95,599.9 -612.696,715.879c-17.424,5.909 -36.35,5.625 -53.591,-0.795c-333.546,-115.184 -613.496,-315.15 -613.496,-715.084l-0,-559.904c-0,-44.175 35.808,-79.987 79.987,-79.987c159.971,-0 359.938,-95.984 499.113,-217.563c35.008,-29.912 86.575,-29.912 121.583,0c139.975,122.379 339.142,217.563 499.113,217.563c44.179,-0 79.987,35.812 79.987,79.987l0,559.904Z" style="fill:none;fill-rule:nonzero;stroke:#fff;stroke-width:8.33px;"/><path d="M826.708,1066.57l479.917,-0" style="fill:none;fill-rule:nonzero;stroke:#fff;stroke-width:8.33px;"/><path d="M1066.67,826.608l-0,479.921" style="fill:none;fill-rule:nonzero;stroke:#fff;stroke-width:8.33px;"/></g></svg>