<?xml version="1.0" encoding="UTF-8" standalone="no"?><!DOCTYPE svg PUBLIC "-//W3C//DTD SVG 1.1//EN" "http://www.w3.org/Graphics/SVG/1.1/DTD/svg11.dtd"><svg width="100%" height="100%" viewBox="0 0 2134 2134" version="1.1" xmlns="http://www.w3.org/2000/svg" xmlns:xlink="http://www.w3.org/1999/xlink" xml:space="preserve" xmlns:serif="http://www.serif.com/" style="fill-rule:evenodd;clip-rule:evenodd;stroke-linecap:round;stroke-linejoin:round;stroke-miterlimit:3;"><g><path d="M408.333,683.333c177.084,0 247.917,-283.333 425,-283.333c78.242,0 141.667,63.425 141.667,141.667c0,78.241 -63.425,141.666 -141.667,141.666c-177.083,0 -247.916,-283.333 -425,-283.333c-78.241,0 -141.666,63.425 -141.666,141.667c-0,78.241 63.425,141.666 141.666,141.666Z" style="fill:none;fill-rule:nonzero;stroke:#fff;stroke-width:8.33px;"/><path d="M266.667,1027.94l291.554,-0c38.246,0.029 72.183,21.65 84.267,53.691l204.266,622.763c6.346,16.575 24.35,27.437 44.142,26.637c19.791,-0.8 36.591,-13.075 41.192,-30.091l296.358,-1240.42c9.433,-35.417 45.196,-60.467 86.4,-60.517l551.821,-0" style="fill:none;fill-rule:nonzero;stroke:#fff;stroke-width:8.33px;stroke-miterlimit:4;"/><path d="M1861.98,1302.82l0,-65.888c0,-18.191 -14.75,-32.941 -32.941,-32.941l-345.9,-0c-6.238,-0 -11.942,3.525 -14.734,9.104c-2.787,5.579 -2.187,12.258 1.559,17.25l148.241,197.654c17.567,23.429 17.567,55.637 0,79.062l-148.241,197.659c-3.746,4.992 -4.346,11.667 -1.559,17.25c2.792,5.579 8.496,9.104 14.734,9.104l345.9,0c18.191,0 32.941,-14.75 32.941,-32.942l0,-65.887" style="fill:none;fill-rule:nonzero;stroke:#fff;stroke-width:8.33px;stroke-miterlimit:4;"/></g></svg>