<?xml version="1.0" encoding="UTF-8" standalone="no"?><!-- Generator: Gravit.io --><svg xmlns="http://www.w3.org/2000/svg" xmlns:xlink="http://www.w3.org/1999/xlink" style="isolation:isolate" viewBox="0 0 512 512" width="512pt" height="512pt"><defs><clipPath id="_clipPath_d92ixLGP6TbKpiCjoUxVC7FILcEpcOJX"><rect width="512" height="512"/></clipPath></defs><g clip-path="url(#_clipPath_d92ixLGP6TbKpiCjoUxVC7FILcEpcOJX)"><g><linearGradient id="_lgradient_6" x1="0.1464466094067262" y1="0.14644660940672627" x2="0.8535533905932737" y2="0.8535533905932737" gradientTransform="matrix(240,0,0,320,63.822,96)" gradientUnits="userSpaceOnUse"><stop offset="0%" stop-opacity="1" style="stop-color:rgb(219,53,69)"/><stop offset="99.16666666666667%" stop-opacity="1" style="stop-color:rgb(175,37,51)"/></linearGradient><path d=" M 303.822 117.427 C 280.28 103.803 252.955 96 223.822 96 C 135.515 96 63.822 167.694 63.822 256 L 63.822 256 C 63.822 344.306 135.515 416 223.822 416 C 252.955 416 280.28 408.197 303.822 394.573 C 273.993 377.297 250.242 350.669 236.604 318.708 C 232.476 319.559 228.2 320 223.822 320 C 188.499 320 159.822 291.323 159.822 256 L 159.822 256 C 159.822 220.677 188.499 192 223.822 192 C 228.2 192 232.476 192.441 236.604 193.292 C 250.242 161.331 273.993 134.703 303.822 117.427 Z " fill="url(#_lgradient_6)"/><linearGradient id="_lgradient_7" x1="0.1464466094067262" y1="0.14644660940672627" x2="0.8535533905932737" y2="0.8535533905932737" gradientTransform="matrix(128.178,0,0,128,319.822,192)" gradientUnits="userSpaceOnUse"><stop offset="0%" stop-opacity="1" style="stop-color:rgb(219,53,69)"/><stop offset="98.75%" stop-opacity="1" style="stop-color:rgb(175,37,51)"/></linearGradient><path d=" M 395.248 216.933 C 398.549 216.933 402.433 221.885 401.414 225.04 C 396.025 241.692 388.403 257.276 378.305 271.598 C 375.586 275.482 368.838 276.889 364.663 274.705 C 355.682 270.044 347.914 263.782 340.972 256.402 C 339.321 254.655 337.865 253.052 339.855 250.577 C 340.341 249.994 340.486 248.732 340.243 248.003 C 338.01 242.178 342.282 239.556 345.778 236.546 C 359.76 224.361 378.451 216.933 395.248 216.933 L 395.248 216.933 L 395.248 216.933 L 395.248 216.933 L 395.248 216.933 L 395.248 216.933 L 395.248 216.933 L 395.248 216.933 L 395.248 216.933 Z  M 384.907 320 C 373.596 319.612 364.032 317.718 355.148 313.009 C 350.39 310.485 350.196 308.397 354.177 304.707 C 357.769 301.358 361.362 298.008 364.954 294.561 C 367.916 291.697 370.052 287.036 375.635 290.24 C 376.509 290.726 378.839 290.095 379.519 289.221 C 382.432 285.482 385.878 286.696 389.471 287.376 C 397.287 288.832 405.201 289.269 413.114 289.026 C 418.794 288.881 422.289 293.541 421.755 299.027 C 420.881 308.009 415.881 312.815 407.725 315.242 C 403.696 316.456 399.715 317.912 395.588 318.738 C 391.704 319.612 387.626 319.757 384.907 320 L 384.907 320 L 384.907 320 L 384.907 320 L 384.907 320 L 384.907 320 L 384.907 320 L 384.907 320 L 384.907 320 Z  M 332.913 239.653 C 326.796 239.556 323.252 233.585 325.825 228.293 C 334.66 210.185 348.982 198.824 368.353 193.241 C 377.528 190.62 384.665 191.785 389.956 200.281 C 391.607 202.951 393.986 205.136 395.879 207.66 C 398.112 210.622 397.627 212.466 393.598 212.758 C 383.888 213.437 374.47 215.331 365.488 219.117 C 355.487 223.341 346.7 229.313 338.981 236.983 C 337.185 238.828 335.583 241.352 332.913 239.653 L 332.913 239.653 L 332.913 239.653 L 332.913 239.653 L 332.913 239.653 L 332.913 239.653 L 332.913 239.653 L 332.913 239.653 Z  M 404.472 284.948 C 399.569 284.366 394.666 283.929 389.811 283.201 C 381.849 282.036 379.713 277.375 383.985 270.821 C 391.995 258.538 398.549 245.576 403.55 231.788 C 404.181 230.041 404.472 227.71 406.803 227.419 C 409.57 227.079 410.104 229.555 411.075 231.352 C 417.677 244.12 422.047 257.567 423.455 271.938 C 423.746 274.996 424.086 277.958 419.91 278.686 C 419.425 278.783 418.842 279.171 418.648 279.608 C 415.881 286.599 409.91 284.9 404.472 284.948 L 404.472 284.948 L 404.472 284.948 L 404.472 284.948 L 404.472 284.948 L 404.472 284.948 L 404.472 284.948 Z  M 447.971 256.354 C 448.214 262.908 446.903 269.607 444.767 276.161 C 443.456 280.094 438.213 283.201 433.213 282.181 C 429.232 281.356 427.921 278.055 427.727 273.977 C 426.804 256.791 421.221 241.013 413.114 225.963 C 412.24 224.361 410.201 223.098 411.949 220.428 C 413.745 217.758 415.784 218.389 417.92 218.778 C 424.523 219.943 430.931 221.788 437.291 223.778 C 439.767 224.555 441.029 226.157 442 228.342 C 446.078 237.129 448.262 246.304 447.971 256.354 L 447.971 256.354 L 447.971 256.354 L 447.971 256.354 L 447.971 256.354 L 447.971 256.354 Z  M 321.164 269.316 C 322.912 264.655 325.388 259.849 329.029 256.208 C 330.728 254.509 334.466 255.189 336.845 258.004 C 344.564 267.083 353.837 274.219 364.566 279.414 C 368.498 281.307 368.79 283.929 366.265 286.842 C 360.828 293.299 354.614 298.979 348.108 304.368 C 346.021 306.067 344.03 306.115 341.991 304.319 C 331.602 295.289 324.805 284.075 321.455 270.724 C 321.358 270.384 321.31 270.044 321.164 269.316 L 321.164 269.316 L 321.164 269.316 L 321.164 269.316 L 321.164 269.316 Z  M 427.581 216.447 C 423.794 215.719 420.008 215.185 416.318 214.214 C 411.803 213.049 409.473 204.068 412.725 200.766 C 413.891 199.601 415.201 199.553 416.512 200.329 C 421.61 203.437 426.367 206.981 430.397 211.398 C 431.416 212.515 431.95 213.68 431.174 215.185 C 430.348 216.739 429.038 216.787 427.581 216.447 L 427.581 216.447 L 427.581 216.447 L 427.581 216.447 Z  M 408.113 199.553 C 407.774 201.106 407.531 203.048 406.948 204.844 C 406.026 207.806 402.239 208.631 400.249 206.349 C 397.627 203.291 395.2 200.087 392.627 196.98 C 391.801 195.96 391.219 194.941 391.753 193.63 C 392.19 192.513 393.258 192.173 394.374 192.319 C 398.549 192.902 402.627 193.921 406.463 195.62 C 407.968 196.349 408.113 197.756 408.113 199.553 L 408.113 199.553 L 408.113 199.553 Z  M 426.464 297.377 C 426.61 292.279 430.931 289.949 433.795 286.745 C 434.523 285.919 436.514 285.968 437.679 287.133 C 438.893 288.395 438.504 289.706 437.533 290.92 C 435.397 293.687 433.261 296.454 431.077 299.221 C 430.251 300.241 429.232 300.824 427.824 300.387 C 426.367 299.901 426.416 298.639 426.464 297.377 L 426.464 297.377 Z  M 319.853 251.45 C 319.805 249.12 320.145 246.207 320.97 243.343 C 321.407 241.838 322.329 240.867 324.077 241.547 C 325.63 242.178 325.436 243.343 324.902 244.605 C 323.98 246.838 324.223 248.926 325.048 251.159 C 326.213 254.412 323.397 256.208 321.892 258.393 C 321.116 259.461 319.999 258.684 319.902 257.373 C 319.756 255.626 319.853 253.878 319.853 251.45 Z " fill-rule="evenodd" fill="url(#_lgradient_7)"/></g></g></svg>