<?xml version="1.0" encoding="UTF-8" standalone="no"?><!-- Generator: Gravit.io --><svg xmlns="http://www.w3.org/2000/svg" xmlns:xlink="http://www.w3.org/1999/xlink" style="isolation:isolate" viewBox="0 0 512 512" width="512pt" height="512pt"><defs><clipPath id="_clipPath_omrDHqUdOgTa4WkDOVifH9bxNhkr6ATE"><rect width="512" height="512"/></clipPath></defs><g clip-path="url(#_clipPath_omrDHqUdOgTa4WkDOVifH9bxNhkr6ATE)"><g><linearGradient id="_lgradient_12" x1="0.1464466094067262" y1="0.14644660940672627" x2="0.8535533905932737" y2="0.8535533905932737" gradientTransform="matrix(240,0,0,320,64,96)" gradientUnits="userSpaceOnUse"><stop offset="0%" stop-opacity="1" style="stop-color:rgb(219,53,69)"/><stop offset="99.16666666666667%" stop-opacity="1" style="stop-color:rgb(175,37,51)"/></linearGradient><path d=" M 304 117.427 C 280.458 103.803 253.133 96 224 96 C 135.694 96 64 167.694 64 256 L 64 256 C 64 344.306 135.694 416 224 416 C 253.133 416 280.458 408.197 304 394.573 C 274.171 377.297 250.421 350.669 236.782 318.708 C 232.655 319.559 228.378 320 224 320 C 188.677 320 160 291.323 160 256 L 160 256 C 160 220.677 188.677 192 224 192 C 228.378 192 232.655 192.441 236.782 193.292 C 250.421 161.331 274.171 134.703 304 117.427 Z " fill-rule="evenodd" fill="url(#_lgradient_12)"/><linearGradient id="_lgradient_13" x1="0.1464466094067262" y1="0.14644660940672627" x2="0.8535533905932737" y2="0.8535533905932737" gradientTransform="matrix(128,0,0,128,320,192)" gradientUnits="userSpaceOnUse"><stop offset="0%" stop-opacity="1" style="stop-color:rgb(219,53,69)"/><stop offset="100%" stop-opacity="1" style="stop-color:rgb(175,37,51)"/></linearGradient><circle vector-effect="non-scaling-stroke" cx="384" cy="256" r="64" fill="url(#_lgradient_13)"/></g></g></svg>