<?xml version="1.0" encoding="UTF-8" standalone="no"?><!-- Generator: Gravit.io --><svg xmlns="http://www.w3.org/2000/svg" xmlns:xlink="http://www.w3.org/1999/xlink" style="isolation:isolate" viewBox="0 0 512 512" width="512pt" height="512pt"><defs><clipPath id="_clipPath_Q9kyYc649Bot5V6db2lCgIasiIUqrLZX"><rect width="512" height="512"/></clipPath></defs><g clip-path="url(#_clipPath_Q9kyYc649Bot5V6db2lCgIasiIUqrLZX)"><g><linearGradient id="_lgradient_8" x1="0.1464466094067262" y1="0.14644660940672627" x2="0.8535533905932737" y2="0.8535533905932737" gradientTransform="matrix(128,0,0,128,319.822,192)" gradientUnits="userSpaceOnUse"><stop offset="0%" stop-opacity="1" style="stop-color:rgb(219,53,69)"/><stop offset="99.16666666666667%" stop-opacity="1" style="stop-color:rgb(175,37,51)"/></linearGradient><path d=" M 418.245 296.868 Q 429.406 301.269 432.05 298.254 C 435.74 294.047 438.888 289.353 441.386 284.283 Q 443.176 280.65 434.809 272.049 C 435.961 268.39 436.729 264.563 437.068 260.613 Q 448.083 255.872 447.815 251.768 C 447.441 246.04 446.314 240.517 444.532 235.296 Q 443.255 231.555 431.243 231.349 C 429.418 227.846 427.215 224.571 424.69 221.577 Q 429.09 210.416 426.075 207.772 C 421.868 204.082 417.175 200.934 412.104 198.435 Q 408.472 196.646 399.87 205.013 C 396.212 203.861 392.384 203.092 388.435 202.754 Q 383.694 191.738 379.589 192.006 C 373.862 192.38 368.338 193.507 363.117 195.29 Q 359.377 196.567 359.17 208.578 C 355.668 210.404 352.393 212.606 349.399 215.132 Q 338.237 210.731 335.593 213.746 C 331.904 217.953 328.755 222.647 326.257 227.717 Q 324.467 231.35 332.835 239.951 C 331.683 243.61 330.914 247.437 330.576 251.387 Q 319.56 256.128 319.828 260.232 C 320.202 265.96 321.329 271.483 323.111 276.704 Q 324.388 280.445 336.4 280.651 C 338.226 284.154 340.428 287.429 342.953 290.423 Q 338.553 301.584 341.568 304.228 C 345.775 307.918 350.468 311.066 355.539 313.565 Q 359.171 315.354 367.773 306.987 C 371.431 308.139 375.259 308.908 379.208 309.246 Q 383.949 320.262 388.054 319.994 C 393.782 319.62 399.305 318.492 404.526 316.71 Q 408.266 315.433 408.473 303.422 C 411.975 301.596 415.25 299.394 418.245 296.868 L 418.245 296.868 Z  M 362.444 256 C 362.444 244.202 372.023 234.623 383.822 234.623 C 395.62 234.623 405.199 244.202 405.199 256 C 405.199 267.798 395.62 277.377 383.822 277.377 C 372.023 277.377 362.444 267.798 362.444 256 L 362.444 256 Z " fill-rule="evenodd" fill="url(#_lgradient_8)"/><linearGradient id="_lgradient_9" x1="0.1464466094067262" y1="0.14644660940672627" x2="0.8535533905932737" y2="0.8535533905932737" gradientTransform="matrix(240,0,0,320,63.822,96)" gradientUnits="userSpaceOnUse"><stop offset="0%" stop-opacity="1" style="stop-color:rgb(219,53,69)"/><stop offset="99.16666666666667%" stop-opacity="1" style="stop-color:rgb(175,37,51)"/></linearGradient><path d=" M 303.822 117.427 C 280.28 103.803 252.955 96 223.822 96 C 135.515 96 63.822 167.694 63.822 256 L 63.822 256 C 63.822 344.306 135.515 416 223.822 416 C 252.955 416 280.28 408.197 303.822 394.573 C 273.993 377.297 250.242 350.669 236.604 318.708 C 232.476 319.559 228.2 320 223.822 320 C 188.499 320 159.822 291.323 159.822 256 L 159.822 256 C 159.822 220.677 188.499 192 223.822 192 C 228.2 192 232.476 192.441 236.604 193.292 C 250.242 161.331 273.993 134.703 303.822 117.427 Z " fill="url(#_lgradient_9)"/></g></g></svg>