<?xml version="1.0" encoding="UTF-8" standalone="no"?><!-- Generator: Gravit.io --><svg xmlns="http://www.w3.org/2000/svg" xmlns:xlink="http://www.w3.org/1999/xlink" style="isolation:isolate" viewBox="0 0 512 512" width="512pt" height="512pt"><defs><clipPath id="_clipPath_jhpu8PeRRr7tsYuQcy7Z5YJWH7Emlox1"><rect width="512" height="512"/></clipPath></defs><g clip-path="url(#_clipPath_jhpu8PeRRr7tsYuQcy7Z5YJWH7Emlox1)"><rect width="512" height="512" style="fill:rgb(235,235,235)" fill-opacity="0"/><g><linearGradient id="_lgradient_10" x1="0.1464466094067262" y1="0.14644660940672627" x2="0.8535533905932737" y2="0.8535533905932737" gradientTransform="matrix(240,0,0,320,64,96)" gradientUnits="userSpaceOnUse"><stop offset="0%" stop-opacity="1" style="stop-color:rgb(219,53,69)"/><stop offset="99.16666666666667%" stop-opacity="1" style="stop-color:rgb(175,37,51)"/></linearGradient><path d=" M 304 117.427 C 280.458 103.803 253.133 96 224 96 C 135.694 96 64 167.694 64 256 L 64 256 C 64 344.306 135.694 416 224 416 C 253.133 416 280.458 408.197 304 394.573 C 274.171 377.297 250.421 350.669 236.782 318.708 C 232.655 319.559 228.378 320 224 320 C 188.677 320 160 291.323 160 256 L 160 256 C 160 220.677 188.677 192 224 192 C 228.378 192 232.655 192.441 236.782 193.292 C 250.421 161.331 274.171 134.703 304 117.427 Z " fill="url(#_lgradient_10)"/><linearGradient id="_lgradient_11" x1="0.1464466094067262" y1="0.14644660940672627" x2="0.8535533905932737" y2="0.8535533905932737" gradientTransform="matrix(128,0,0,128,320,192)" gradientUnits="userSpaceOnUse"><stop offset="2.083333333333333%" stop-opacity="1" style="stop-color:rgb(219,53,69)"/><stop offset="98.33333333333333%" stop-opacity="1" style="stop-color:rgb(175,37,51)"/></linearGradient><path d=" M 320 256 C 320 220.677 348.677 192 384 192 C 419.323 192 448 220.677 448 256 C 448 291.323 419.323 320 384 320 C 348.677 320 320 291.323 320 256 Z  M 374.735 290.273 C 364.094 287.347 354.949 279.542 350.769 268.432 L 350.769 268.432 L 350.769 268.432 L 350.769 268.432 L 350.769 268.432 L 350.769 268.432 C 350.274 267.116 350.941 265.645 352.257 265.15 C 353.573 264.655 355.044 265.321 355.539 266.638 L 355.539 266.638 C 359.121 276.158 366.956 282.847 376.075 285.356 C 376.079 285.357 376.083 285.358 376.087 285.359 C 377.443 285.732 378.241 287.136 377.868 288.492 C 377.495 289.848 376.091 290.646 374.735 290.273 C 374.735 290.273 374.735 290.273 374.735 290.273 L 374.735 290.273 L 374.735 290.273 L 374.735 290.273 L 374.735 290.273 L 374.735 290.273 L 374.735 290.273 L 374.735 290.273 L 374.735 290.273 L 374.735 290.273 L 374.735 290.273 L 374.735 290.273 L 374.735 290.273 L 374.735 290.273 L 374.735 290.273 L 374.735 290.273 L 374.735 290.273 L 374.735 290.273 L 374.735 290.273 L 374.735 290.273 L 374.735 290.273 L 374.735 290.273 L 374.735 290.273 L 374.735 290.273 L 374.735 290.273 Z  M 348.339 255.868 C 348.339 236.179 364.323 220.195 384.012 220.195 L 384.012 220.195 L 384.012 220.195 L 384.012 220.195 L 384.012 220.195 L 384.012 220.195 C 385.418 220.195 386.56 221.336 386.56 222.743 C 386.56 224.149 385.418 225.291 384.012 225.291 L 384.012 225.291 C 367.136 225.291 353.435 238.992 353.435 255.868 L 353.435 255.868 C 353.435 257.274 352.293 258.416 350.887 258.416 C 349.48 258.416 348.339 257.274 348.339 255.868 L 348.339 255.868 L 348.339 255.868 L 348.339 255.868 L 348.339 255.868 L 348.339 255.868 L 348.339 255.868 L 348.339 255.868 L 348.339 255.868 L 348.339 255.868 L 348.339 255.868 L 348.339 255.868 L 348.339 255.868 L 348.339 255.868 L 348.339 255.868 L 348.339 255.868 L 348.339 255.868 L 348.339 255.868 L 348.339 255.868 L 348.339 255.868 L 348.339 255.868 L 348.339 255.868 L 348.339 255.868 L 348.339 255.868 L 348.339 255.868 L 348.339 255.868 L 348.339 255.868 Z  M 395.073 266.382 C 389.272 272.509 379.587 272.774 373.46 266.973 L 373.46 266.973 C 372.439 266.006 372.394 264.392 373.361 263.371 C 374.328 262.349 375.942 262.305 376.963 263.272 L 376.963 263.272 C 381.048 267.14 387.505 266.963 391.372 262.878 L 391.372 262.878 C 392.339 261.857 393.953 261.813 394.974 262.78 C 395.996 263.746 396.04 265.36 395.073 266.382 L 395.073 266.382 L 395.073 266.382 L 395.073 266.382 L 395.073 266.382 L 395.073 266.382 L 395.073 266.382 L 395.073 266.382 L 395.073 266.382 L 395.073 266.382 L 395.073 266.382 L 395.073 266.382 L 395.073 266.382 L 395.073 266.382 L 395.073 266.382 L 395.073 266.382 L 395.073 266.382 L 395.073 266.382 L 395.073 266.382 L 395.073 266.382 L 395.073 266.382 L 395.073 266.382 L 395.073 266.382 L 395.073 266.382 L 395.073 266.382 L 395.073 266.382 L 395.073 266.382 Z  M 399.185 255.098 C 399.028 251.772 397.791 248.473 395.433 245.772 L 395.433 245.772 C 394.509 244.712 392.898 244.603 391.838 245.528 C 390.779 246.452 390.669 248.063 391.594 249.123 L 391.594 249.123 C 393.29 251.066 394.117 253.474 394.105 255.868 L 394.204 255.868 L 394.204 255.868 C 394.204 257.274 395.346 258.416 396.752 258.416 C 398.158 258.416 399.3 257.274 399.3 255.868 C 399.3 255.6 399.259 255.342 399.185 255.098 L 399.185 255.098 L 399.185 255.098 L 399.185 255.098 L 399.185 255.098 L 399.185 255.098 L 399.185 255.098 L 399.185 255.098 L 399.185 255.098 L 399.185 255.098 L 399.185 255.098 L 399.185 255.098 L 399.185 255.098 L 399.185 255.098 L 399.185 255.098 L 399.185 255.098 L 399.185 255.098 L 399.185 255.098 L 399.185 255.098 L 399.185 255.098 L 399.185 255.098 L 399.185 255.098 L 399.185 255.098 L 399.185 255.098 Z  M 365.994 237.845 C 375.938 227.901 392.085 227.901 402.029 237.845 L 402.029 237.845 C 403.024 238.84 403.024 240.454 402.029 241.449 C 401.035 242.443 399.42 242.443 398.426 241.449 L 398.426 241.449 C 390.47 233.493 377.553 233.493 369.598 241.449 L 369.598 241.449 L 369.598 241.449 L 369.598 241.449 C 368.603 242.443 366.988 242.443 365.994 241.449 C 365 240.454 365 238.84 365.994 237.845 L 365.994 237.845 L 365.994 237.845 L 365.994 237.845 L 365.994 237.845 L 365.994 237.845 L 365.994 237.845 L 365.994 237.845 L 365.994 237.845 L 365.994 237.845 L 365.994 237.845 L 365.994 237.845 L 365.994 237.845 L 365.994 237.845 L 365.994 237.845 L 365.994 237.845 L 365.994 237.845 L 365.994 237.845 L 365.994 237.845 L 365.994 237.845 L 365.994 237.845 L 365.994 237.845 L 365.994 237.845 L 365.994 237.845 L 365.994 237.845 Z  M 373.982 279.409 C 361.076 273.823 355.133 258.81 360.719 245.904 L 360.719 245.904 C 361.278 244.613 362.779 244.019 364.07 244.577 C 365.36 245.136 365.955 246.637 365.396 247.928 C 360.927 258.253 365.681 270.263 376.006 274.732 L 376.006 274.732 C 377.297 275.291 377.891 276.792 377.333 278.083 C 376.774 279.374 375.273 279.968 373.982 279.409 L 373.982 279.409 L 373.982 279.409 L 373.982 279.409 L 373.982 279.409 L 373.982 279.409 L 373.982 279.409 L 373.982 279.409 L 373.982 279.409 L 373.982 279.409 L 373.982 279.409 L 373.982 279.409 L 373.982 279.409 L 373.982 279.409 L 373.982 279.409 L 373.982 279.409 L 373.982 279.409 L 373.982 279.409 L 373.982 279.409 L 373.982 279.409 L 373.982 279.409 L 373.982 279.409 L 373.982 279.409 L 373.982 279.409 Z  M 368.723 255.868 C 368.723 247.43 375.574 240.579 384.012 240.579 L 384.012 240.579 C 385.418 240.579 386.56 241.721 386.56 243.127 C 386.56 244.534 385.418 245.675 384.012 245.675 L 384.012 245.675 C 378.386 245.675 373.819 250.242 373.819 255.868 L 373.819 255.868 C 373.819 257.274 372.678 258.416 371.271 258.416 C 369.865 258.416 368.723 257.274 368.723 255.868 L 368.723 255.868 L 368.723 255.868 L 368.723 255.868 L 368.723 255.868 L 368.723 255.868 L 368.723 255.868 L 368.723 255.868 L 368.723 255.868 L 368.723 255.868 L 368.723 255.868 L 368.723 255.868 L 368.723 255.868 L 368.723 255.868 L 368.723 255.868 L 368.723 255.868 L 368.723 255.868 L 368.723 255.868 L 368.723 255.868 L 368.723 255.868 L 368.723 255.868 L 368.723 255.868 L 368.723 255.868 Z  M 384.014 281.348 C 389.055 281.36 394.149 279.881 398.597 276.786 L 398.597 276.786 C 399.751 275.983 400.036 274.393 399.233 273.239 C 398.43 272.085 396.84 271.8 395.686 272.603 L 395.686 272.603 C 392.128 275.079 388.053 276.262 384.02 276.253 C 384.017 276.252 384.014 276.252 384.012 276.252 C 382.605 276.252 381.464 277.394 381.464 278.8 C 381.464 280.207 382.605 281.349 384.012 281.349 C 384.012 281.349 384.013 281.349 384.014 281.348 L 384.014 281.348 L 384.014 281.348 L 384.014 281.348 L 384.014 281.348 L 384.014 281.348 L 384.014 281.348 L 384.014 281.348 L 384.014 281.348 L 384.014 281.348 L 384.014 281.348 L 384.014 281.348 L 384.014 281.348 L 384.014 281.348 L 384.014 281.348 L 384.014 281.348 L 384.014 281.348 L 384.014 281.348 L 384.014 281.348 Z  M 378.915 255.868 C 378.915 253.055 381.199 250.772 384.012 250.772 C 386.824 250.772 389.108 253.055 389.108 255.868 C 389.108 258.68 386.824 260.964 384.012 260.964 C 381.199 260.964 378.915 258.68 378.915 255.868 L 378.915 255.868 L 378.915 255.868 L 378.915 255.868 L 378.915 255.868 L 378.915 255.868 L 378.915 255.868 L 378.915 255.868 L 378.915 255.868 L 378.915 255.868 L 378.915 255.868 L 378.915 255.868 L 378.915 255.868 L 378.915 255.868 L 378.915 255.868 L 378.915 255.868 L 378.915 255.868 L 378.915 255.868 Z  M 418.471 246.611 C 423.549 265.634 412.228 285.2 393.205 290.278 C 391.846 290.641 390.449 289.832 390.086 288.473 C 389.723 287.115 390.532 285.717 391.891 285.354 L 391.891 285.354 C 408.196 281.002 417.9 264.231 413.547 247.926 L 413.547 247.926 L 413.547 247.926 L 413.547 247.926 C 413.185 246.567 413.993 245.169 415.352 244.807 C 416.711 244.444 418.108 245.253 418.471 246.611 L 418.471 246.611 L 418.471 246.611 L 418.471 246.611 L 418.471 246.611 L 418.471 246.611 L 418.471 246.611 L 418.471 246.611 L 418.471 246.611 L 418.471 246.611 L 418.471 246.611 L 418.471 246.611 L 418.471 246.611 L 418.471 246.611 L 418.471 246.611 L 418.471 246.611 L 418.471 246.611 L 418.471 246.611 L 418.471 246.611 Z  M 408.619 249.476 C 410.307 255.776 409.594 262.72 406.078 268.81 L 406.078 268.81 C 405.375 270.027 403.815 270.445 402.597 269.742 C 401.38 269.039 400.962 267.479 401.665 266.261 C 404.473 261.397 405.046 255.852 403.703 250.817 C 403.701 250.81 403.698 250.802 403.696 250.795 C 403.332 249.436 404.14 248.038 405.498 247.674 C 406.857 247.31 408.255 248.117 408.619 249.476 L 408.619 249.476 L 408.619 249.476 L 408.619 249.476 L 408.619 249.476 L 408.619 249.476 L 408.619 249.476 L 408.619 249.476 L 408.619 249.476 L 408.619 249.476 L 408.619 249.476 L 408.619 249.476 L 408.619 249.476 L 408.619 249.476 L 408.619 249.476 L 408.619 249.476 L 408.619 249.476 Z  M 393.236 226.954 C 399.854 229.096 405.781 233.494 409.746 239.853 C 410.49 241.046 412.063 241.411 413.257 240.667 C 414.45 239.923 414.815 238.35 414.07 237.156 L 414.07 237.156 L 414.07 237.156 L 414.07 237.156 L 414.07 237.156 L 414.07 237.156 C 409.435 229.724 402.503 224.587 394.765 222.093 L 394.765 222.093 C 393.425 221.666 391.99 222.408 391.564 223.748 C 391.137 225.088 391.879 226.522 393.219 226.949 C 393.224 226.951 393.23 226.952 393.236 226.954 L 393.236 226.954 L 393.236 226.954 L 393.236 226.954 L 393.236 226.954 L 393.236 226.954 L 393.236 226.954 L 393.236 226.954 L 393.236 226.954 L 393.236 226.954 L 393.236 226.954 L 393.236 226.954 L 393.236 226.954 L 393.236 226.954 Z  M 428.354 244.333 C 426.339 236.492 422.224 229.087 416.019 223.018 L 416.019 223.018 C 397.922 205.318 368.86 205.639 351.159 223.736 L 351.159 223.736 C 350.176 224.741 350.194 226.356 351.199 227.339 C 352.204 228.322 353.819 228.305 354.802 227.299 L 354.802 227.299 L 354.802 227.299 C 370.536 211.213 396.369 210.928 412.455 226.661 L 412.455 226.661 C 417.971 232.056 421.629 238.639 423.42 245.609 C 423.42 245.609 423.42 245.609 423.421 245.609 C 423.772 246.971 425.163 247.791 426.525 247.439 C 427.887 247.087 428.706 245.696 428.355 244.334 C 428.355 244.334 428.354 244.334 428.354 244.333 L 428.354 244.333 L 428.354 244.333 L 428.354 244.333 L 428.354 244.333 L 428.354 244.333 L 428.354 244.333 L 428.354 244.333 L 428.354 244.333 L 428.354 244.333 L 428.354 244.333 L 428.354 244.333 L 428.354 244.333 L 428.354 244.333 Z  M 421.874 270.753 C 423.366 266.919 424.297 262.793 424.561 258.469 L 424.561 258.469 C 424.647 257.066 425.856 255.996 427.26 256.082 C 428.663 256.167 429.733 257.377 429.647 258.78 L 429.647 258.78 C 429.346 263.713 428.273 268.417 426.555 272.782 L 426.555 272.782 C 426.554 272.784 426.554 272.785 426.553 272.786 C 426.038 274.097 424.555 274.743 423.244 274.227 C 421.933 273.711 421.288 272.229 421.803 270.918 C 421.825 270.862 421.849 270.807 421.874 270.753 L 421.874 270.753 L 421.874 270.753 L 421.874 270.753 L 421.874 270.753 L 421.874 270.753 L 421.874 270.753 L 421.874 270.753 L 421.874 270.753 L 421.874 270.753 L 421.874 270.753 L 421.874 270.753 L 421.874 270.753 Z  M 417.548 287.144 C 417.07 287.652 416.581 288.148 416.082 288.632 C 416.006 288.764 415.911 288.886 415.803 289.001 C 415.612 289.205 415.395 289.37 415.162 289.497 C 404.587 299.203 389.627 303.819 374.533 300.593 L 374.533 300.593 C 366.045 298.779 358.61 294.719 352.717 289.168 C 352.716 289.168 352.716 289.168 352.716 289.167 C 351.691 288.204 351.64 286.591 352.603 285.566 C 353.566 284.541 355.18 284.49 356.205 285.453 C 356.205 285.453 356.205 285.453 356.205 285.454 C 361.444 290.387 368.053 293.997 375.599 295.609 L 375.599 295.609 C 390.057 298.7 404.377 293.695 413.832 283.656 C 413.833 283.656 413.833 283.655 413.833 283.655 C 414.796 282.63 416.41 282.58 417.435 283.543 C 418.46 284.506 418.51 286.119 417.548 287.144 L 417.548 287.144 L 417.548 287.144 L 417.548 287.144 L 417.548 287.144 L 417.548 287.144 L 417.548 287.144 L 417.548 287.144 L 417.548 287.144 L 417.548 287.144 L 417.548 287.144 L 417.548 287.144 Z  M 339.535 267.255 C 339.148 265.724 338.837 264.157 338.606 262.56 L 338.606 262.56 C 337.364 253.97 338.592 245.588 341.754 238.135 C 341.754 238.135 341.754 238.134 341.754 238.134 C 342.302 236.839 343.798 236.231 345.094 236.779 C 346.389 237.327 346.996 238.823 346.448 240.118 C 346.448 240.118 346.448 240.119 346.448 240.119 C 343.638 246.744 342.545 254.195 343.65 261.831 L 343.65 261.831 C 343.855 263.251 344.132 264.643 344.475 266.005 L 344.474 266.005 L 344.474 266.005 C 344.826 267.367 344.006 268.758 342.645 269.11 C 341.283 269.462 339.892 268.642 339.54 267.28 C 339.538 267.272 339.536 267.263 339.535 267.255 L 339.535 267.255 L 339.535 267.255 L 339.535 267.255 L 339.535 267.255 L 339.535 267.255 L 339.535 267.255 L 339.535 267.255 L 339.535 267.255 Z  M 331.077 274.09 C 330.994 273.848 330.912 273.606 330.835 273.362 C 330.787 273.224 330.742 273.086 330.698 272.947 C 325.667 257.268 327.551 239.526 337.365 224.759 L 337.365 224.759 C 338.143 223.587 339.726 223.268 340.897 224.047 C 342.069 224.825 342.388 226.408 341.609 227.579 L 341.609 227.579 C 335.196 237.23 332.508 248.279 333.21 259.022 C 333.252 259.161 333.275 259.307 333.285 259.458 L 333.285 259.458 C 333.541 263.149 334.184 266.722 335.173 270.139 C 335.295 270.561 335.422 270.981 335.554 271.398 C 335.637 271.656 335.721 271.914 335.809 272.169 C 336.014 272.786 336.232 273.396 336.461 274 C 336.487 274.059 336.51 274.119 336.531 274.18 C 340.198 283.677 346.733 292.171 355.849 298.229 L 355.849 298.229 L 355.849 298.229 L 355.849 298.229 C 356.015 298.339 356.163 298.465 356.288 298.609 L 356.288 298.609 C 365.253 304.48 376.137 307.576 387.643 306.78 L 387.643 306.78 L 387.643 306.78 L 387.643 306.78 C 389.046 306.683 390.264 307.743 390.361 309.146 C 390.458 310.549 389.398 311.767 387.995 311.864 L 387.995 311.864 C 362.111 313.655 339.092 297.541 331.077 274.09 L 331.077 274.09 L 331.077 274.09 L 331.077 274.09 L 331.077 274.09 L 331.077 274.09 L 331.077 274.09 L 331.077 274.09 L 331.077 274.09 Z  M 436.781 237.117 C 447.117 266.279 431.834 298.346 402.672 308.682 L 402.672 308.682 C 401.347 309.152 399.889 308.457 399.419 307.132 C 398.949 305.806 399.644 304.349 400.97 303.879 L 400.97 303.879 C 427.48 294.482 441.374 265.33 431.977 238.82 L 431.977 238.82 L 431.977 238.82 L 431.977 238.82 C 431.508 237.494 432.202 236.037 433.528 235.567 C 434.853 235.097 436.311 235.792 436.781 237.117 L 436.781 237.117 L 436.781 237.117 L 436.781 237.117 L 436.781 237.117 L 436.781 237.117 L 436.781 237.117 L 436.781 237.117 L 436.781 237.117 L 436.781 237.117 Z  M 394.879 200.874 C 380.797 198.11 365.663 200.713 352.822 209.34 L 352.822 209.34 C 351.655 210.125 351.344 211.709 352.128 212.876 C 352.912 214.044 354.497 214.355 355.664 213.57 L 355.664 213.57 L 355.664 213.57 L 355.664 213.57 C 367.198 205.822 380.767 203.419 393.437 205.787 C 393.577 205.852 393.729 205.897 393.887 205.928 C 395.267 206.199 396.609 205.287 396.883 203.892 C 397.157 202.497 396.259 201.145 394.879 200.874 L 394.879 200.874 L 394.879 200.874 L 394.879 200.874 L 394.879 200.874 L 394.879 200.874 L 394.879 200.874 Z  M 406.511 210.19 C 411.494 212.642 416.018 215.886 419.919 219.755 C 419.999 219.888 420.099 220.011 420.212 220.125 C 421.202 221.124 422.825 221.123 423.835 220.123 C 424.845 219.123 424.862 217.5 423.872 216.501 L 423.872 216.501 C 419.302 211.886 413.937 208.06 407.998 205.247 L 407.958 205.342 C 406.661 204.798 405.167 205.408 404.622 206.705 C 404.078 208.002 404.688 209.497 405.985 210.041 C 406.157 210.113 406.333 210.165 406.511 210.19 L 406.511 210.19 L 406.511 210.19 L 406.511 210.19 Z " fill-rule="evenodd" fill="url(#_lgradient_11)"/></g></g></svg>