<?xml version="1.0" encoding="UTF-8" standalone="no"?><!-- Generator: Gravit.io --><svg xmlns="http://www.w3.org/2000/svg" xmlns:xlink="http://www.w3.org/1999/xlink" style="isolation:isolate" viewBox="0 0 512 512" width="512pt" height="512pt"><defs><clipPath id="_clipPath_DDjTQ6mnAklG533HSZC2iDuR1d0nilzO"><rect width="512" height="512"/></clipPath></defs><g clip-path="url(#_clipPath_DDjTQ6mnAklG533HSZC2iDuR1d0nilzO)"><rect width="512" height="512" style="fill:rgb(0,0,0)" fill-opacity="0"/><path d=" M 256 32 L 96 32 C 60.677 32 32 60.677 32 96 L 32 416 C 32 451.323 60.677 480 96 480 L 256 480 L 256 32 Z " fill="rgb(221,0,49)"/><path d=" M 256 32 L 416 32 C 451.323 32 480 60.677 480 96 L 480 416 C 480 451.323 451.323 480 416 480 L 256 480 L 256 32 Z " fill="rgb(195,0,47)"/><path d=" M 256.245 96 L 113.533 416 L 113.533 416 L 166.743 416 L 166.743 416 L 195.433 344.398 L 316.567 344.398 L 345.257 416 L 345.257 416 L 398.467 416 L 398.467 416 L 256.245 96 L 256.245 96 L 256.245 96 L 256.245 96 L 256.245 96 Z  M 297.931 300.261 L 214.559 300.261 L 256.245 199.969 L 297.931 300.261 Z " fill="rgb(255,255,255)"/></g></svg>