<?xml version="1.0" encoding="UTF-8" standalone="no"?><!-- Generator: Gravit.io --><svg xmlns="http://www.w3.org/2000/svg" xmlns:xlink="http://www.w3.org/1999/xlink" style="isolation:isolate" viewBox="0 0 512 512" width="512pt" height="512pt"><defs><clipPath id="_clipPath_gakyUgwP4Vo7s5ASOeWtrK13LkMOGZxq"><rect width="512" height="512"/></clipPath></defs><g clip-path="url(#_clipPath_gakyUgwP4Vo7s5ASOeWtrK13LkMOGZxq)"><rect width="512" height="512" style="fill:rgb(0,0,0)" fill-opacity="0"/><path d="M 96 32 L 416 32 C 451.323 32 480 60.677 480 96 L 480 416 C 480 451.323 451.323 480 416 480 L 96 480 C 60.677 480 32 451.323 32 416 L 32 96 C 32 60.677 60.677 32 96 32 Z" style="stroke:none;fill:#702AF7;stroke-miterlimit:10;"/><path d=" M 430.561 198.483 C 422.907 246.462 398.483 290.17 361.634 321.831 C 324.784 353.492 277.899 371.053 229.32 371.389 C 219.48 371.767 209.627 371.169 199.905 369.604 C 158.008 362.485 126.771 327.074 124.934 284.616 C 125.131 261.635 134.355 239.652 150.617 223.412 C 184.45 189.624 239.136 189.238 273.443 222.544 C 289.932 238.553 299.467 260.402 299.988 283.378 C 300.356 297.89 294.07 310.618 281.151 310.986 C 267.348 310.986 260.878 301.136 260.878 287.863 L 260.878 250.978 C 260.888 238.562 250.879 228.464 238.463 228.365 L 207.546 228.365 C 189.272 228.239 172.184 237.395 162.168 252.68 C 152.151 267.964 150.573 287.286 157.977 303.992 C 165.382 320.699 180.757 332.507 198.809 335.351 C 216.86 338.191 235.119 331.678 247.296 318.054 L 248.378 316.441 L 249.46 318.231 C 257.012 328.492 269.197 334.295 281.923 333.692 C 305.151 332.004 322.793 312.096 321.674 288.834 C 321.783 279.235 320.707 269.66 318.471 260.324 C 312.738 233.953 297.445 210.637 275.542 194.874 C 230.179 162.226 167.489 169.093 130.269 210.787 C 112.297 230.919 102.413 256.992 102.522 283.979 C 102.867 312.595 114.29 339.964 134.391 360.335 C 154.49 380.704 181.703 392.49 210.31 393.213 C 210.31 393.213 218.407 393.95 227.535 393.74 C 271.906 393.459 315.276 380.519 352.546 356.44 C 353.076 356.072 353.607 356.808 353.254 357.345 C 316.527 396.91 264.24 418.295 210.313 415.804 C 175.117 416.444 141.188 402.668 116.399 377.674 C 91.607 352.679 78.108 318.638 79.03 283.445 C 79.047 241.346 98.919 201.721 132.648 176.529 C 155.004 160.065 182.021 151.146 209.784 151.063 L 251.28 151.063 C 284.054 151.039 315.309 137.238 337.406 113.034 C 337.637 112.778 337.944 112.603 338.282 112.534 C 338.974 112.384 339.684 112.694 340.045 113.303 C 340.223 113.601 340.303 113.947 340.274 114.294 C 338.515 132.945 332.306 150.902 322.168 166.656 C 321.861 167.215 321.914 167.903 322.302 168.409 C 322.688 168.914 323.335 169.144 323.954 168.997 C 362.799 160.221 395.171 133.525 411.183 97.062 C 411.384 96.741 411.66 96.474 411.989 96.285 C 412.662 95.905 413.484 95.905 414.157 96.285 C 414.487 96.473 414.764 96.739 414.962 97.062 C 431.225 128.217 436.71 163.881 430.561 198.483 L 430.561 198.483 Z  M 210.203 250.518 C 200.538 250.516 191.381 254.846 185.249 262.317 C 179.117 269.788 176.656 279.614 178.543 289.093 C 181.091 301.898 191.099 311.908 203.903 314.457 C 213.382 316.342 223.207 313.88 230.678 307.748 C 238.148 301.615 242.477 292.458 242.474 282.793 L 242.474 252.66 C 242.414 251.466 241.46 250.511 240.266 250.452 L 210.203 250.518 Z " fill="rgb(255,255,255)"/></g></svg>