<?xml version="1.0" encoding="UTF-8" standalone="no"?><!-- Generator: Gravit.io --><svg xmlns="http://www.w3.org/2000/svg" xmlns:xlink="http://www.w3.org/1999/xlink" style="isolation:isolate" viewBox="0 0 512 512" width="512pt" height="512pt"><defs><clipPath id="_clipPath_b7vcc4hnVmj2Dm3qW3fTeHZYgUwL4luN"><rect width="512" height="512"/></clipPath></defs><g clip-path="url(#_clipPath_b7vcc4hnVmj2Dm3qW3fTeHZYgUwL4luN)"><rect width="512" height="512" style="fill:rgb(0,0,0)" fill-opacity="0"/><defs><linearGradient id="_lgradient_0" x1="0.1464466094067262" y1="0.14644660940672627" x2="0.8535533905932737" y2="0.8535533905932737"><stop offset="0%" style="stop-color:#8F13FD"/><stop offset="100%" style="stop-color:#6510F1"/></linearGradient></defs><path d="M 96 32 L 416 32 C 451.323 32 480 60.677 480 96 L 480 416 C 480 451.323 451.323 480 416 480 L 96 480 C 60.677 480 32 451.323 32 416 L 32 96 C 32 60.677 60.677 32 96 32 Z" style="stroke:none;fill:url(#_lgradient_0);stroke-miterlimit:10;"/><path d=" M 115.163 149.638 C 114.481 130.056 129.737 112 150.359 112 L 361.667 112 C 382.289 112 397.545 130.056 396.863 149.638 C 396.208 168.447 397.059 192.813 403.191 212.68 C 409.342 232.608 419.716 245.205 436.706 246.824 L 436.706 265.176 C 419.716 266.795 409.342 279.392 403.191 299.32 C 397.059 319.187 396.208 343.553 396.863 362.363 C 397.545 381.944 382.289 400 361.667 400 L 150.359 400 C 129.737 400 114.481 381.944 115.164 362.363 C 115.818 343.553 114.968 319.187 108.835 299.32 C 102.684 279.392 92.285 266.795 75.294 265.176 L 75.294 246.824 C 92.284 245.205 102.684 232.608 108.835 212.68 C 114.968 192.813 115.818 168.447 115.163 149.638 Z  M 218.662 193.201 L 257.354 193.201 C 278.389 193.201 290.333 202.215 290.333 218.537 C 290.333 235.955 276.441 245.699 251.252 245.699 L 218.662 245.699 L 218.662 193.201 L 218.662 193.201 L 218.662 193.201 Z  M 218.662 324.386 L 218.662 266.528 L 257.094 266.528 C 284.62 266.528 298.903 276.272 298.903 295.274 C 298.903 314.276 285.01 324.386 258.782 324.386 L 218.662 324.386 L 218.662 324.386 L 218.662 324.386 Z  M 264.755 346.676 C 304.616 346.676 328.636 327.918 328.636 296.979 C 328.636 273.593 311.497 256.662 286.049 253.982 L 286.049 253.008 C 304.746 250.084 319.418 233.397 319.418 214.761 C 319.418 188.208 297.605 170.911 264.366 170.911 L 189.577 170.911 L 189.577 346.676 L 264.755 346.676 L 264.755 346.676 Z " fill-rule="evenodd" fill="rgb(255,255,255)"/></g></svg>