<?xml version="1.0" encoding="UTF-8" standalone="no"?><!-- Generator: Gravit.io --><svg xmlns="http://www.w3.org/2000/svg" xmlns:xlink="http://www.w3.org/1999/xlink" style="isolation:isolate" viewBox="0 0 512 512" width="512pt" height="512pt"><defs><clipPath id="_clipPath_0sLD55PINV5vtoGlxibPOqYe6uGHIyzV"><rect width="512" height="512"/></clipPath></defs><g clip-path="url(#_clipPath_0sLD55PINV5vtoGlxibPOqYe6uGHIyzV)"><rect width="512" height="512" style="fill:rgb(0,0,0)" fill-opacity="0"/><path d="M 96 32 L 416 32 C 451.323 32 480 60.677 480 96 L 480 416 C 480 451.323 451.323 480 416 480 L 96 480 C 60.677 480 32 451.323 32 416 L 32 96 C 32 60.677 60.677 32 96 32 Z" style="stroke:none;fill:#512BD4;stroke-miterlimit:10;"/><g><path d=" M 106.229 316.118 C 103.007 316.118 100.269 315.045 98.013 312.897 C 95.758 310.695 94.631 308.08 94.631 305.053 C 94.631 301.969 95.758 299.327 98.013 297.125 C 100.269 294.923 103.007 293.822 106.229 293.822 C 109.504 293.822 112.269 294.923 114.524 297.125 C 116.833 299.327 117.988 301.969 117.988 305.053 C 117.988 308.08 116.833 310.695 114.524 312.897 C 112.269 315.045 109.504 316.118 106.229 316.118 Z " fill="rgb(255,255,255)"/><path d=" M 235.017 314.301 L 214.076 314.301 L 158.906 227.263 C 157.51 225.061 156.355 222.775 155.443 220.408 L 154.959 220.408 C 155.389 222.941 155.604 228.364 155.604 236.676 L 155.604 314.301 L 137.079 314.301 L 137.079 195.882 L 159.389 195.882 L 212.707 280.856 C 214.963 284.38 216.412 286.802 217.057 288.123 L 217.379 288.123 C 216.842 284.986 216.573 279.673 216.573 272.185 L 216.573 195.882 L 235.017 195.882 L 235.017 314.301 Z " fill="rgb(255,255,255)"/><path d=" M 325.226 314.301 L 260.391 314.301 L 260.391 195.882 L 322.649 195.882 L 322.649 212.564 L 279.56 212.564 L 279.56 246.091 L 319.267 246.091 L 319.267 262.689 L 279.56 262.689 L 279.56 297.703 L 325.226 297.703 L 325.226 314.301 Z " fill="rgb(255,255,255)"/><path d=" M 417.369 212.564 L 384.186 212.564 L 384.186 314.301 L 365.017 314.301 L 365.017 212.564 L 331.915 212.564 L 331.915 195.882 L 417.369 195.882 L 417.369 212.564 Z " fill="rgb(255,255,255)"/></g></g></svg>