<?xml version="1.0" encoding="UTF-8" standalone="no"?><!-- Generator: Gravit.io --><svg xmlns="http://www.w3.org/2000/svg" xmlns:xlink="http://www.w3.org/1999/xlink" style="isolation:isolate" viewBox="0 0 512 512" width="512pt" height="512pt"><defs><clipPath id="_clipPath_U15UU25RCnvPmZK5ZGc3nzszXte4Cjvg"><rect width="512" height="512"/></clipPath></defs><g clip-path="url(#_clipPath_U15UU25RCnvPmZK5ZGc3nzszXte4Cjvg)"><rect width="512" height="512" style="fill:rgb(0,0,0)" fill-opacity="0"/><path d="M 96 32 L 416 32 C 451.323 32 480 60.677 480 96 L 480 416 C 480 451.323 451.323 480 416 480 L 96 480 C 60.677 480 32 451.323 32 416 L 32 96 C 32 60.677 60.677 32 96 32 Z" style="stroke:none;fill:#FFFFFF;stroke-miterlimit:10;"/><g><path d=" M 214.001 343.469 C 214.001 343.469 201.779 350.582 222.708 352.982 C 248.067 355.878 261.026 355.461 288.963 350.18 C 288.963 350.18 296.323 354.784 306.583 358.772 C 243.935 385.612 164.798 357.216 214.001 343.469 L 214.001 343.469 Z " fill-rule="evenodd" fill="rgb(0,116,189)"/><path d=" M 206.341 308.437 C 206.341 308.437 192.632 318.587 213.577 320.752 C 240.668 323.549 262.054 323.778 299.083 316.652 C 299.083 316.652 304.192 321.842 312.239 324.679 C 236.505 346.831 152.154 326.421 206.341 308.437 L 206.341 308.437 Z " fill-rule="evenodd" fill="rgb(0,116,189)"/><path d=" M 270.874 249.004 C 286.318 266.783 266.824 282.768 266.824 282.768 C 266.824 282.768 306.017 262.539 288.021 237.195 C 271.208 213.571 258.317 201.836 328.103 161.364 C 328.104 161.364 218.556 188.717 270.874 249.004 L 270.874 249.004 Z " fill-rule="evenodd" fill="rgb(234,45,46)"/><path d=" M 353.729 369.384 C 353.729 369.384 362.777 376.842 343.765 382.61 C 307.613 393.56 193.267 396.863 161.507 383.048 C 150.098 378.079 171.503 371.191 178.238 369.737 C 185.26 368.217 189.269 368.495 189.269 368.495 C 176.572 359.554 107.202 386.055 154.037 393.656 C 281.759 414.358 386.855 384.331 353.729 369.384 L 353.729 369.384 Z " fill-rule="evenodd" fill="rgb(0,116,189)"/><path d=" M 219.882 272.136 C 219.882 272.136 161.727 285.953 199.289 290.974 C 215.154 293.097 246.761 292.609 276.224 290.137 C 300.297 288.117 324.454 283.796 324.454 283.796 C 324.454 283.796 315.973 287.434 309.832 291.625 C 250.764 307.161 136.676 299.926 169.525 284.042 C 197.293 270.609 219.882 272.136 219.882 272.136 L 219.882 272.136 Z " fill-rule="evenodd" fill="rgb(0,116,189)"/><path d=" M 324.214 330.448 C 384.255 299.257 356.491 269.279 337.113 273.316 C 332.375 274.305 330.249 275.162 330.249 275.162 C 330.249 275.162 332.014 272.396 335.376 271.206 C 373.711 257.735 403.187 310.951 323.014 332.026 C 323.013 332.026 323.935 331.191 324.214 330.448 L 324.214 330.448 Z " fill-rule="evenodd" fill="rgb(0,116,189)"/><path d=" M 288.022 96 C 288.022 96 321.266 129.263 256.481 180.398 C 204.528 221.433 244.635 244.822 256.463 271.557 C 226.134 244.196 203.888 220.106 218.809 197.689 C 240.721 164.787 301.432 148.83 288.022 96 L 288.022 96 Z " fill-rule="evenodd" fill="rgb(234,45,46)"/><path d=" M 225.785 414.996 C 283.404 418.68 371.91 412.946 374.004 385.679 C 374.004 385.679 369.978 396.016 326.381 404.217 C 277.197 413.477 216.521 412.399 180.547 406.459 C 180.547 406.459 187.917 412.559 225.785 414.996 L 225.785 414.996 Z " fill-rule="evenodd" fill="rgb(0,116,189)"/></g></g></svg>