<?xml version="1.0" encoding="UTF-8" standalone="no"?><!-- Generator: Gravit.io --><svg xmlns="http://www.w3.org/2000/svg" xmlns:xlink="http://www.w3.org/1999/xlink" style="isolation:isolate" viewBox="0 0 512 512" width="512pt" height="512pt"><defs><clipPath id="_clipPath_bDrTbznHfYAjVN3jSL1SRNQWO4UsvvzL"><rect width="512" height="512"/></clipPath></defs><g clip-path="url(#_clipPath_bDrTbznHfYAjVN3jSL1SRNQWO4UsvvzL)"><rect width="512" height="512" style="fill:rgb(0,0,0)" fill-opacity="0"/><path d="M 96 32 L 416 32 C 451.323 32 480 60.677 480 96 L 480 416 C 480 451.323 451.323 480 416 480 L 96 480 C 60.677 480 32 451.323 32 416 L 32 96 C 32 60.677 60.677 32 96 32 Z" style="stroke:none;fill:#000000;stroke-miterlimit:10;"/><path d=" M 322.83 273.24 C 310.369 273.24 299.197 278.761 291.546 287.453 L 271.943 273.575 C 274.024 267.845 275.219 261.693 275.219 255.254 C 275.219 248.926 274.065 242.877 272.053 237.232 L 291.613 223.502 C 299.262 232.15 310.405 237.641 322.83 237.641 C 345.83 237.641 364.545 218.928 364.545 195.925 C 364.545 172.922 345.83 154.21 322.83 154.21 C 299.83 154.21 281.114 172.922 281.114 195.925 C 281.114 200.042 281.736 204.013 282.853 207.773 L 263.28 221.511 C 255.104 211.367 243.331 204.285 229.919 202.123 L 229.919 178.534 C 248.815 174.565 263.052 157.776 263.052 137.715 C 263.052 114.712 244.337 96 221.337 96 C 198.336 96 179.621 114.712 179.621 137.715 C 179.621 157.508 193.49 174.09 212.008 178.342 L 212.008 202.237 C 186.736 206.673 167.455 228.729 167.455 255.254 C 167.455 281.908 186.927 304.045 212.381 308.33 L 212.381 333.562 C 193.674 337.674 179.621 354.358 179.621 374.285 C 179.621 397.288 198.336 416 221.337 416 C 244.337 416 263.052 397.288 263.052 374.285 C 263.052 354.358 248.999 337.674 230.292 333.562 L 230.292 308.329 C 243.176 306.159 254.832 299.38 263.089 289.254 L 282.824 303.222 C 281.728 306.949 281.114 310.88 281.114 314.956 C 281.114 337.959 299.83 356.671 322.83 356.671 C 345.83 356.671 364.545 337.959 364.545 314.956 C 364.545 291.952 345.83 273.24 322.83 273.24 L 322.83 273.24 Z  M 322.83 175.699 C 333.983 175.699 343.055 184.775 343.055 195.925 C 343.055 207.075 333.983 216.15 322.83 216.15 C 311.677 216.15 302.605 207.075 302.605 195.925 C 302.605 184.775 311.677 175.699 322.83 175.699 L 322.83 175.699 Z  M 201.111 137.715 C 201.111 126.565 210.183 117.491 221.337 117.491 C 232.49 117.491 241.562 126.565 241.562 137.715 C 241.562 148.866 232.49 157.94 221.337 157.94 C 210.183 157.94 201.111 148.866 201.111 137.715 Z  M 241.562 374.285 C 241.562 385.435 232.49 394.509 221.337 394.509 C 210.183 394.509 201.111 385.435 201.111 374.285 C 201.111 363.134 210.183 354.06 221.337 354.06 C 232.49 354.06 241.562 363.134 241.562 374.285 Z  M 221.335 283.461 C 205.78 283.461 193.125 270.809 193.125 255.254 C 193.125 239.698 205.78 227.044 221.335 227.044 C 236.89 227.044 249.544 239.698 249.544 255.254 C 249.544 270.809 236.89 283.461 221.335 283.461 Z  M 322.83 335.181 C 311.677 335.181 302.605 326.106 302.605 314.956 C 302.605 303.805 311.677 294.731 322.83 294.731 C 333.983 294.731 343.055 303.805 343.055 314.956 C 343.055 326.106 333.983 335.181 322.83 335.181 Z " fill="rgb(255,255,255)"/></g></svg>