<?xml version="1.0" encoding="UTF-8" standalone="no"?><!-- Generator: Gravit.io --><svg xmlns="http://www.w3.org/2000/svg" xmlns:xlink="http://www.w3.org/1999/xlink" style="isolation:isolate" viewBox="0 0 512 512" width="512pt" height="512pt"><defs><clipPath id="_clipPath_cKWhDVDtdhtxBwDPyN8soKajDnRDSoBk"><rect width="512" height="512"/></clipPath></defs><g clip-path="url(#_clipPath_cKWhDVDtdhtxBwDPyN8soKajDnRDSoBk)"><rect width="512" height="512" style="fill:rgb(0,0,0)" fill-opacity="0"/><path d="M 96 32 L 416 32 C 451.323 32 480 60.677 480 96 L 480 416 C 480 451.323 451.323 480 416 480 L 96 480 C 60.677 480 32 451.323 32 416 L 32 96 C 32 60.677 60.677 32 96 32 Z" style="stroke:none;fill:#FF6600;stroke-miterlimit:10;"/><path d=" M 394.792 224 L 294.232 224 C 289.184 223.998 285.093 219.907 285.09 214.86 L 285.09 110.057 C 285.09 102.296 278.797 96 271.04 96 L 235.142 96 C 227.38 96 221.09 102.296 221.09 110.057 L 221.09 214.225 C 221.09 219.63 216.721 224.022 211.317 224.046 L 178.362 224.203 C 172.911 224.233 168.483 219.81 168.494 214.365 L 168.698 110.08 C 168.716 102.307 162.42 96 154.648 96 L 118.779 96 C 111.016 96 104.728 102.296 104.728 110.057 L 104.728 403.52 C 104.728 410.415 110.313 416 117.202 416 L 394.792 416 C 401.687 416 407.272 410.415 407.272 403.52 L 407.272 236.48 C 407.272 229.585 401.687 224 394.792 224 L 394.792 224 Z  M 347.636 334.184 C 347.636 343.219 340.311 350.545 331.276 350.545 L 302.906 350.545 C 293.87 350.545 286.545 343.219 286.545 334.184 L 286.545 305.815 C 286.545 296.779 293.87 289.454 302.906 289.454 L 331.276 289.454 C 340.311 289.454 347.636 296.779 347.636 305.815 L 347.636 334.184 L 347.636 334.184 Z " fill="rgb(255,255,255)"/></g></svg>