<?xml version="1.0" encoding="UTF-8" standalone="no"?><!-- Generator: Gravit.io --><svg xmlns="http://www.w3.org/2000/svg" xmlns:xlink="http://www.w3.org/1999/xlink" style="isolation:isolate" viewBox="0 0 512 512" width="512pt" height="512pt"><defs><clipPath id="_clipPath_TgLbUTVtvHZsxwmCOD5xMTgVUj6AzLOL"><rect width="512" height="512"/></clipPath></defs><g clip-path="url(#_clipPath_TgLbUTVtvHZsxwmCOD5xMTgVUj6AzLOL)"><rect width="512" height="512" style="fill:rgb(0,0,0)" fill-opacity="0"/><path d="M 96 32 L 416 32 C 451.323 32 480 60.677 480 96 L 480 416 C 480 451.323 451.323 480 416 480 L 96 480 C 60.677 480 32 451.323 32 416 L 32 96 C 32 60.677 60.677 32 96 32 Z" style="stroke:none;fill:#FFFFFF;stroke-miterlimit:10;"/><g><path d=" M 387.372 114.892 C 382.929 125.549 377.179 135.612 370.253 144.85 C 329.881 103.085 270 86.563 213.924 101.717 C 157.847 116.87 114.439 161.305 100.599 217.72 C 86.759 274.135 104.675 333.614 147.372 372.999 L 153.298 378.267 C 199.153 416.939 262.838 426.589 318.091 403.237 C 373.345 379.885 410.806 327.486 415.027 267.649 C 419.636 227.484 407.455 176.126 387.372 114.892 Z  M 170.417 374.316 C 165.691 380.124 157.151 381.003 151.341 376.28 C 145.53 371.556 144.647 363.017 149.367 357.204 C 154.088 351.391 162.626 350.504 168.442 355.221 C 174.115 360.026 174.986 368.451 170.417 374.316 Z  M 386.385 326.579 C 347.208 378.925 262.928 361.147 209.265 363.781 C 209.265 363.781 199.718 364.439 190.17 365.756 C 190.17 365.756 193.792 364.11 198.401 362.464 C 236.261 349.295 254.039 346.662 277.084 334.81 C 320.212 312.752 363.339 264.357 371.899 214.316 C 355.438 262.382 305.397 303.863 259.965 320.653 C 228.689 332.176 172.392 343.369 172.392 343.369 L 170.088 342.053 C 131.899 323.287 130.582 240.324 200.376 213.657 C 230.993 201.805 259.965 208.39 293.216 200.488 C 328.442 192.258 369.265 165.92 385.726 131.352 C 404.163 186.99 426.549 273.246 386.385 326.579 Z " fill="rgb(109,179,63)"/></g></g></svg>