<?xml version="1.0" encoding="UTF-8" standalone="no"?><!-- Generator: Gravit.io --><svg xmlns="http://www.w3.org/2000/svg" xmlns:xlink="http://www.w3.org/1999/xlink" style="isolation:isolate" viewBox="0 0 512 512" width="512pt" height="512pt"><defs><clipPath id="_clipPath_0RBVYPHixO87VeLhpcdgiEvDE22BkfhQ"><rect width="512" height="512"/></clipPath></defs><g clip-path="url(#_clipPath_0RBVYPHixO87VeLhpcdgiEvDE22BkfhQ)"><rect width="512" height="512" style="fill:rgb(0,0,0)" fill-opacity="0"/><path d="M 96 32 L 416 32 C 451.323 32 480 60.677 480 96 L 480 416 C 480 451.323 451.323 480 416 480 L 96 480 C 60.677 480 32 451.323 32 416 L 32 96 C 32 60.677 60.677 32 96 32 Z" style="stroke:none;fill:#38BDF8;stroke-miterlimit:10;"/><path d=" M 256 160 C 213.333 160 186.667 181.333 176 224 C 192 202.667 210.667 194.667 232 200 C 244.172 203.04 252.871 211.876 262.501 221.647 C 278.187 237.57 296.344 256 336 256 C 378.667 256 405.333 234.667 416 192 C 400 213.333 381.333 221.333 360 216 C 347.828 212.96 339.129 204.124 329.499 194.353 C 313.813 178.43 295.656 160 256 160 Z  M 176 256 C 133.333 256 106.667 277.333 96 320 C 112 298.667 130.667 290.667 152 296 C 164.172 299.046 172.871 307.876 182.501 317.647 C 198.187 333.57 216.344 352 256 352 C 298.667 352 325.333 330.667 336 288 C 320 309.333 301.333 317.333 280 312 C 267.828 308.96 259.129 300.124 249.499 290.353 C 233.813 274.43 215.656 256 176 256 Z " fill-rule="evenodd" fill="rgb(255,255,255)"/></g></svg>