<?xml version="1.0" encoding="UTF-8" standalone="no"?><!DOCTYPE svg PUBLIC "-//W3C//DTD SVG 1.1//EN" "http://www.w3.org/Graphics/SVG/1.1/DTD/svg11.dtd"><svg width="100%" height="100%" viewBox="0 0 2134 2134" version="1.1" xmlns="http://www.w3.org/2000/svg" xmlns:xlink="http://www.w3.org/1999/xlink" xml:space="preserve" xmlns:serif="http://www.serif.com/" style="fill-rule:evenodd;clip-rule:evenodd;stroke-linecap:round;stroke-linejoin:round;stroke-miterlimit:3;"><g><path d="M1742.69,1236.95c31.002,12.225 50.176,14.15 57.52,5.775c15.375,-17.529 28.492,-37.088 38.9,-58.213c4.973,-10.091 -4.162,-27.083 -27.404,-50.975c4.8,-15.245 8,-31.191 9.413,-47.65c30.597,-13.169 45.523,-25.454 44.779,-36.854c-1.559,-23.866 -6.254,-46.879 -13.679,-68.633c-3.548,-10.392 -22.005,-15.874 -55.371,-16.446c-7.604,-14.596 -16.784,-28.241 -27.304,-40.716c12.222,-31.003 14.146,-50.177 5.771,-57.521c-17.53,-15.375 -37.084,-28.492 -58.213,-38.904c-10.089,-4.97 -27.081,4.166 -50.975,27.408c-15.242,-4.8 -31.192,-8.004 -47.646,-9.413c-13.169,-30.6 -25.455,-45.527 -36.858,-44.783c-23.863,1.558 -46.879,6.254 -68.633,13.683c-10.389,3.548 -15.871,22.003 -16.446,55.367c-14.592,7.608 -28.238,16.783 -40.713,27.308c-31.005,-12.225 -50.18,-14.15 -57.525,-5.775c-15.371,17.529 -28.492,37.088 -38.9,58.213c-4.972,10.092 4.164,27.083 27.409,50.975c-4.801,15.246 -8.005,31.192 -9.413,47.65c-30.6,13.169 -45.528,25.454 -44.783,36.854c1.558,23.867 6.254,46.879 13.679,68.633c3.547,10.392 22.004,15.874 55.371,16.446c7.608,14.596 16.783,28.242 27.304,40.717c-12.222,31.003 -14.146,50.176 -5.771,57.521c17.529,15.375 37.083,28.491 58.212,38.904c10.089,4.969 27.081,-4.167 50.975,-27.409c15.242,4.801 31.192,8.005 47.646,9.413c13.17,30.6 25.456,45.528 36.859,44.783c23.866,-1.558 46.879,-6.258 68.633,-13.683c10.389,-3.547 15.871,-22.003 16.446,-55.367c14.591,-7.608 28.237,-16.783 40.716,-27.308Zm-232.504,-170.283c0,-49.159 39.913,-89.071 89.075,-89.071c49.159,-0 89.071,39.912 89.071,89.071c0,49.158 -39.912,89.071 -89.071,89.071c-49.162,-0 -89.075,-39.913 -89.075,-89.071Z" style="fill:none;stroke:#fff;stroke-width:8.33px;"/><path d="M1265.92,489.279c-98.092,-56.766 -211.946,-89.279 -333.333,-89.279c-367.946,0 -666.667,298.725 -666.667,666.667c0,367.941 298.721,666.666 666.667,666.666c121.387,0 235.241,-32.512 333.333,-89.279c-124.287,-71.983 -223.25,-182.933 -280.075,-316.104c-17.2,3.546 -35.017,5.383 -53.258,5.383c-147.179,0 -266.667,-119.487 -266.667,-266.666c0,-147.18 119.488,-266.667 266.667,-266.667c18.241,-0 36.058,1.837 53.258,5.383c56.825,-133.171 155.788,-244.121 280.075,-316.104Z" style="fill:none;fill-rule:nonzero;stroke:#fff;stroke-width:8.33px;"/></g></svg>