<?xml version="1.0" encoding="UTF-8" standalone="no"?><!DOCTYPE svg PUBLIC "-//W3C//DTD SVG 1.1//EN" "http://www.w3.org/Graphics/SVG/1.1/DTD/svg11.dtd"><svg width="100%" height="100%" viewBox="0 0 2134 2134" version="1.1" xmlns="http://www.w3.org/2000/svg" xmlns:xlink="http://www.w3.org/1999/xlink" xml:space="preserve" xmlns:serif="http://www.serif.com/" style="fill-rule:evenodd;clip-rule:evenodd;stroke-linecap:round;stroke-linejoin:round;stroke-miterlimit:3;"><g><path d="M1266.67,489.279c-98.092,-56.766 -211.946,-89.279 -333.334,-89.279c-367.941,0 -666.666,298.725 -666.666,666.667c-0,367.941 298.725,666.666 666.666,666.666c121.388,0 235.242,-32.512 333.334,-89.279c-124.288,-71.983 -223.246,-182.933 -280.075,-316.104c-17.196,3.546 -35.017,5.383 -53.259,5.383c-147.179,0 -266.666,-119.487 -266.666,-266.666c-0,-147.18 119.487,-266.667 266.666,-266.667c18.242,-0 36.063,1.837 53.259,5.383c56.829,-133.171 155.787,-244.121 280.075,-316.104Z" style="fill:none;fill-rule:nonzero;stroke:#fff;stroke-width:8.33px;"/><path d="M1333.33,1066.67c0,-147.179 119.488,-266.667 266.667,-266.667c147.179,0 266.667,119.488 266.667,266.667c-0,147.179 -119.488,266.666 -266.667,266.666c-147.179,0 -266.667,-119.487 -266.667,-266.666Zm228.063,142.804c-44.338,-12.192 -82.442,-44.713 -99.859,-91.004c-2.062,-5.484 0.717,-11.613 6.2,-13.675c5.484,-2.063 11.613,0.712 13.675,6.2c14.925,39.666 47.571,67.537 85.567,77.991c0.017,0.005 0.034,0.009 0.05,0.013c5.65,1.554 8.975,7.404 7.421,13.054c-1.554,5.65 -7.404,8.975 -13.054,7.421Zm-109.984,-143.354c0,-82.038 66.6,-148.638 148.638,-148.638c5.858,0 10.617,4.754 10.617,10.617c-0,5.858 -4.759,10.616 -10.617,10.616c-70.317,0 -127.404,57.088 -127.404,127.405c-0,5.858 -4.759,10.616 -10.617,10.616c-5.862,0 -10.617,-4.758 -10.617,-10.616Zm194.725,43.808c-24.17,25.529 -64.525,26.633 -90.054,2.462c-4.254,-4.029 -4.441,-10.754 -0.412,-15.008c4.029,-4.258 10.754,-4.442 15.008,-0.412c17.021,16.116 43.925,15.379 60.038,-1.642c4.029,-4.254 10.754,-4.438 15.008,-0.408c4.258,4.025 4.442,10.75 0.412,15.008Zm17.134,-47.017c-0.654,-13.858 -5.809,-27.604 -15.634,-38.858c-3.85,-4.417 -10.562,-4.871 -14.979,-1.017c-4.412,3.85 -4.87,10.563 -1.016,14.979c7.066,8.096 10.512,18.13 10.462,28.105l0.413,-0c-0,5.858 4.758,10.616 10.616,10.616c5.859,0 10.617,-4.758 10.617,-10.616c0,-1.117 -0.171,-2.192 -0.479,-3.209Zm-138.296,-71.887c41.433,-41.434 108.713,-41.434 150.146,-0c4.146,4.146 4.146,10.871 -0,15.016c-4.142,4.142 -10.871,4.142 -15.013,0c-33.15,-33.15 -86.97,-33.15 -120.116,0c-4.146,4.142 -10.875,4.142 -15.017,0c-4.142,-4.145 -4.142,-10.87 0,-15.016Zm33.283,173.183c-53.775,-23.275 -78.537,-85.829 -55.262,-139.604c2.329,-5.379 8.583,-7.854 13.962,-5.529c5.375,2.329 7.855,8.583 5.525,13.962c-18.62,43.021 1.188,93.063 44.209,111.684c5.379,2.329 7.854,8.583 5.529,13.962c-2.329,5.379 -8.583,7.854 -13.963,5.525Zm-21.912,-98.087c-0,-35.159 28.546,-63.705 63.704,-63.705c5.858,0 10.617,4.759 10.617,10.617c-0,5.863 -4.759,10.617 -10.617,10.617c-23.442,-0 -42.471,19.029 -42.471,42.471c0,5.858 -4.754,10.616 -10.616,10.616c-5.859,0 -10.617,-4.758 -10.617,-10.616Zm63.712,106.166c21.005,0.05 42.23,-6.112 60.763,-19.008c4.808,-3.346 5.996,-9.971 2.65,-14.779c-3.346,-4.809 -9.971,-5.996 -14.779,-2.65c-14.825,10.317 -31.804,15.246 -48.609,15.208c-0.012,-0.004 -0.025,-0.004 -0.033,-0.004c-5.862,0 -10.617,4.758 -10.617,10.617c0,5.862 4.755,10.62 10.617,10.62c0,0.001 0.004,0.001 0.008,-0.004Zm-21.245,-106.166c-0.001,-11.721 9.516,-21.234 21.237,-21.234c11.717,0 21.233,9.513 21.233,21.234c0,11.716 -9.516,21.233 -21.233,21.233c-11.721,0 -21.238,-9.517 -21.238,-21.233Zm164.817,-38.571c21.158,79.262 -26.012,160.787 -105.275,181.946c-5.662,1.512 -11.483,-1.859 -12.996,-7.521c-1.512,-5.659 1.859,-11.484 7.521,-12.996c67.938,-18.133 108.371,-88.013 90.234,-155.95c-1.509,-5.662 1.858,-11.487 7.52,-12.996c5.663,-1.512 11.484,1.858 12.996,7.517Zm-41.05,11.937c7.034,26.25 4.063,55.184 -10.587,80.559c-2.929,5.071 -9.43,6.812 -14.505,3.883c-5.07,-2.929 -6.812,-9.429 -3.883,-14.504c11.7,-20.267 14.088,-43.371 8.492,-64.35c-0.008,-0.029 -0.021,-0.063 -0.029,-0.092c-1.517,-5.662 1.85,-11.487 7.508,-13.004c5.663,-1.517 11.487,1.846 13.004,7.508Zm-64.096,-93.841c27.575,8.925 52.271,27.25 68.792,53.745c3.1,4.971 9.654,6.492 14.629,3.392c4.971,-3.1 6.492,-9.654 3.388,-14.629c-19.313,-30.967 -48.196,-52.371 -80.438,-62.763c-5.583,-1.779 -11.562,1.313 -13.337,6.896c-1.779,5.584 1.312,11.559 6.896,13.338c0.02,0.008 0.045,0.012 0.07,0.021Zm146.325,72.412c-8.395,-32.671 -25.541,-63.525 -51.395,-88.812c-75.405,-73.75 -196.496,-72.413 -270.25,2.991c-4.096,4.188 -4.021,10.917 0.166,15.013c4.188,4.096 10.917,4.025 15.013,-0.167c65.558,-67.025 173.196,-68.212 240.221,-2.658c22.983,22.479 38.225,49.908 45.687,78.95l0.004,-0c1.463,5.675 7.259,9.091 12.934,7.625c5.675,-1.467 9.087,-7.263 7.625,-12.938c-0,0 -0.005,0 -0.005,-0.004Zm-27,110.083c6.217,-15.975 10.096,-33.166 11.196,-51.183c0.359,-5.846 5.396,-10.304 11.246,-9.946c5.846,0.354 10.304,5.396 9.946,11.242c-1.254,20.554 -5.725,40.154 -12.883,58.342c-0.005,0.008 -0.005,0.012 -0.009,0.016c-2.146,5.463 -8.325,8.154 -13.787,6.004c-5.463,-2.15 -8.15,-8.325 -6.004,-13.787c0.091,-0.233 0.191,-0.463 0.295,-0.688Zm-18.025,68.296c-1.991,2.117 -4.029,4.184 -6.108,6.2c-0.317,0.55 -0.712,1.059 -1.162,1.538c-0.796,0.85 -1.7,1.537 -2.671,2.066c-44.063,40.442 -106.396,59.675 -169.288,46.234c-35.366,-7.559 -66.346,-24.475 -90.9,-47.604c-0.004,-0 -0.004,-0 -0.004,-0.005c-4.271,-4.012 -4.483,-10.733 -0.471,-15.004c4.013,-4.271 10.738,-4.483 15.009,-0.471l-0,0.005c21.829,20.554 49.366,35.595 80.808,42.312c60.242,12.879 119.908,-7.975 159.304,-49.804c0.004,0 0.004,-0.004 0.004,-0.004c4.013,-4.271 10.738,-4.479 15.009,-0.467c4.27,4.013 4.479,10.734 0.47,15.004Zm-325.054,-82.87c-1.612,-6.38 -2.908,-12.909 -3.871,-19.563c-5.175,-35.792 -0.058,-70.717 13.117,-101.771l0,-0.004c2.283,-5.396 8.517,-7.929 13.917,-5.646c5.396,2.284 7.925,8.517 5.641,13.913l0,0.004c-11.708,27.604 -16.262,58.65 -11.658,90.467c0.854,5.916 2.008,11.716 3.438,17.391l-0.005,0c1.467,5.675 -1.95,11.471 -7.62,12.938c-5.675,1.466 -11.471,-1.95 -12.938,-7.625c-0.008,-0.034 -0.017,-0.071 -0.021,-0.105Zm-35.241,28.48c-0.346,-1.009 -0.688,-2.017 -1.009,-3.034c-0.2,-0.575 -0.387,-1.15 -0.571,-1.729c-20.962,-65.329 -13.112,-139.254 27.78,-200.783c3.241,-4.884 9.837,-6.213 14.716,-2.967c4.884,3.242 6.213,9.838 2.967,14.717c-26.721,40.212 -37.921,86.25 -34.996,131.012c0.175,0.579 0.271,1.188 0.313,1.817c1.066,15.379 3.745,30.267 7.866,44.504c0.509,1.758 1.038,3.508 1.588,5.246c0.346,1.075 0.696,2.15 1.062,3.212c0.854,2.571 1.763,5.113 2.717,7.63c0.108,0.245 0.204,0.495 0.292,0.75c15.279,39.57 42.508,74.962 80.491,100.204c0.692,0.458 1.309,0.983 1.829,1.583c37.355,24.463 82.705,37.363 130.646,34.046c5.846,-0.404 10.921,4.012 11.325,9.858c0.404,5.846 -4.012,10.921 -9.858,11.325c-107.85,7.463 -203.763,-59.679 -237.158,-157.391Zm440.433,-154.055c43.067,121.509 -20.613,255.121 -142.121,298.188c-5.521,1.958 -11.596,-0.938 -13.554,-6.458c-1.958,-5.525 0.937,-11.596 6.462,-13.554c110.459,-39.155 168.35,-160.621 129.196,-271.08c-1.954,-5.525 0.938,-11.596 6.463,-13.554c5.521,-1.958 11.596,0.938 13.554,6.458Zm-174.592,-151.012c-58.675,-11.517 -121.733,-0.671 -175.237,35.275c-4.863,3.271 -6.159,9.871 -2.892,14.733c3.267,4.867 9.871,6.163 14.733,2.892c48.059,-32.283 104.596,-42.296 157.388,-32.429c0.583,0.271 1.217,0.458 1.875,0.587c5.75,1.13 11.342,-2.671 12.483,-8.483c1.142,-5.813 -2.6,-11.446 -8.35,-12.575Zm48.467,38.817c20.762,10.216 39.612,23.733 55.867,39.854c0.333,0.554 0.75,1.066 1.22,1.541c4.125,4.163 10.888,4.159 15.096,-0.008c4.209,-4.167 4.279,-10.929 0.154,-15.092c-19.041,-19.229 -41.395,-35.17 -66.141,-46.891l-0.167,0.396c-5.404,-2.267 -11.629,0.275 -13.9,5.679c-2.267,5.404 0.275,11.633 5.679,13.9c0.717,0.3 1.45,0.516 2.192,0.621Z" style="fill:none;stroke:#fff;stroke-width:8.33px;"/></g></svg>