<?xml version="1.0" encoding="UTF-8" standalone="no"?><!-- Generator: Gravit.io --><svg xmlns="http://www.w3.org/2000/svg" xmlns:xlink="http://www.w3.org/1999/xlink" style="isolation:isolate" viewBox="0 0 512 512" width="512pt" height="512pt"><defs><clipPath id="_clipPath_1MK8lVm8zXfXf79moM28RzlUxpQWdF07"><rect width="512" height="512"/></clipPath></defs><g clip-path="url(#_clipPath_1MK8lVm8zXfXf79moM28RzlUxpQWdF07)"><linearGradient id="_lgradient_0" x1="0" y1="0.5" x2="1" y2="0.5" gradientTransform="matrix(384,0,0,384,64,64)" gradientUnits="userSpaceOnUse"><stop offset="0%" stop-opacity="1" style="stop-color:rgb(7,179,155)"/><stop offset="100%" stop-opacity="1" style="stop-color:rgb(111,186,130)"/></linearGradient><path d=" M 136 416 C 113.923 416 96 398.077 96 376 L 96 376 C 96 353.923 113.923 336 136 336 L 424 336 C 428.415 336 432 339.585 432 344 L 432 344 C 432 348.415 428.415 352 424 352 L 136 352 L 136 352 C 122.754 352 112 362.754 112 376 L 112 376 C 112 389.246 122.754 400 136 400 L 424 400 C 428.415 400 432 403.585 432 408 L 432 408 C 432 412.415 428.415 416 424 416 L 136 416 L 136 416 L 136 416 L 136 416 Z  M 136 368 L 408 368 C 412.415 368 416 371.585 416 376 L 416 376 C 416 380.415 412.415 384 408 384 L 136 384 C 131.585 384 128 380.415 128 376 L 128 376 C 128 371.585 131.585 368 136 368 L 136 368 Z  M 432 304 L 136 304 L 136 304 C 113.392 304 93.204 314.442 80 330.763 L 80 136 L 80 136 C 80 105.093 105.093 80 136 80 L 432 80 L 432 304 L 432 304 L 432 304 Z  M 136 432 C 105.093 432 80 406.907 80 376 L 80 376 C 80 345.093 105.093 320 136 320 L 136 320 L 440 320 L 440 320 L 440 320 L 440 320 C 444.415 320 448 316.415 448 312 L 448 312 L 448 72 L 448 72 L 448 72 L 448 72 C 448 67.585 444.415 64 440 64 L 440 64 L 136 64 C 96.262 64 64 96.262 64 136 L 64 368 C 64 368.669 64.082 369.32 64.256 369.935 C 64.085 371.934 64 373.957 64 376 L 64 376 C 64 415.738 96.262 448 136 448 L 136 448 L 440 448 C 444.415 448 448 444.415 448 440 L 448 440 C 448 435.585 444.415 432 440 432 L 136 432 L 136 432 L 136 432 Z " fill-rule="evenodd" fill="url(#_lgradient_0)"/></g></svg>