<?xml version="1.0" encoding="UTF-8" standalone="no"?><!-- Generator: Gravit.io --><svg xmlns="http://www.w3.org/2000/svg" xmlns:xlink="http://www.w3.org/1999/xlink" style="isolation:isolate" viewBox="0 0 512 512" width="512pt" height="512pt"><defs><clipPath id="_clipPath_sr8k29Ao7EwpmPf91dM3VJpytoHIR3pJ"><rect width="512" height="512"/></clipPath></defs><g clip-path="url(#_clipPath_sr8k29Ao7EwpmPf91dM3VJpytoHIR3pJ)"><linearGradient id="_lgradient_2" x1="0" y1="0.5" x2="1" y2="0.5" gradientTransform="matrix(384,0,0,384,64,64)" gradientUnits="userSpaceOnUse"><stop offset="0%" stop-opacity="1" style="stop-color:rgb(243,112,85)"/><stop offset="100%" stop-opacity="1" style="stop-color:rgb(239,78,123)"/></linearGradient><path d=" M 336 64 C 397.814 64 448 114.186 448 176 C 448 203.006 438.973 250.512 384 320 Q 340.633 374.817 256 448 Q 171.481 375.025 128 320 C 73.351 250.843 64 202.927 64 176 C 64 114.186 114.186 64 176 64 C 207.331 64 235.675 76.893 256 97.669 C 276.325 76.893 304.669 64 336 64 Z  M 336 80 C 348.83 79.99 361.53 82.55 373.35 87.55 C 384.75 92.38 395.11 99.37 403.87 108.13 C 412.63 116.89 419.62 127.25 424.46 138.66 C 429.44 150.46 432.01 163.15 432 175.97 C 431.97 183.09 431.3 190.2 430 197.21 C 429.16 201.77 428.11 206.3 426.85 210.76 C 425.36 216.03 423.63 221.23 421.67 226.35 C 419.37 232.35 416.82 238.26 414.01 244.04 C 410.74 250.79 407.2 257.41 403.4 263.88 C 398.99 271.38 394.31 278.72 389.37 285.88 C 383.67 294.14 377.69 302.2 371.46 310.06 C 367.85 314.63 364.15 319.13 360.38 323.56 C 356 328.7 351.55 333.77 347.02 338.77 C 343.76 342.36 340.46 345.92 337.13 349.45 C 333.46 353.33 329.76 357.18 326.03 361 C 323.35 363.73 320.66 366.45 317.95 369.15 C 315.06 372.03 312.16 374.89 309.23 377.73 C 299.87 386.86 290.35 395.84 280.69 404.66 C 272.53 412.11 264.3 419.48 255.99 426.78 C 244.02 416.27 232.2 405.58 220.53 394.73 C 208.73 383.75 197.18 372.49 185.9 360.97 C 177 351.88 168.32 342.58 159.86 333.08 C 153.2 325.6 146.76 317.93 140.55 310.07 C 134.34 302.24 128.4 294.21 122.73 285.98 C 117.81 278.83 113.14 271.5 108.75 264.01 C 104.95 257.54 101.41 250.92 98.13 244.17 C 95.32 238.37 92.75 232.45 90.44 226.43 C 88.47 221.3 86.73 216.08 85.23 210.79 C 83.96 206.31 82.9 201.78 82.04 197.21 C 81.33 193.37 80.8 189.51 80.44 185.63 C 80.15 182.42 80 179.21 80 175.99 C 79.99 163.16 82.56 150.47 87.54 138.66 C 92.38 127.25 99.37 116.89 108.13 108.13 C 116.89 99.37 127.25 92.38 138.66 87.54 C 150.47 82.55 163.17 79.99 176 80 C 189 79.99 201.87 82.62 213.81 87.74 C 231.01 95.15 245.67 107.41 256 123.03 C 266.33 107.41 280.99 95.15 298.19 87.74 C 310.13 82.62 323 79.99 336 80 Z " fill-rule="evenodd" fill="url(#_lgradient_2)"/></g></svg>