<?xml version="1.0" encoding="UTF-8" standalone="no"?><!-- Generator: Gravit.io --><svg xmlns="http://www.w3.org/2000/svg" xmlns:xlink="http://www.w3.org/1999/xlink" style="isolation:isolate" viewBox="0 0 512 512" width="512pt" height="512pt"><defs><clipPath id="_clipPath_viSXC7mE7vZZkOEsWesQiTzyIL1DI9F5"><rect width="512" height="512"/></clipPath></defs><g clip-path="url(#_clipPath_viSXC7mE7vZZkOEsWesQiTzyIL1DI9F5)"><linearGradient id="_lgradient_3" x1="0" y1="0.5" x2="1" y2="0.5" gradientTransform="matrix(384,0,0,352.867,64,64)" gradientUnits="userSpaceOnUse"><stop offset="0.8695652173913043%" stop-opacity="1" style="stop-color:rgb(247,149,51)"/><stop offset="100%" stop-opacity="1" style="stop-color:rgb(243,112,85)"/></linearGradient><path d=" M 294.695 307.591 C 307.013 300.531 320 279.77 320 256 C 320 220.677 291.323 192 256 192 C 220.677 192 192 220.677 192 256 L 192 256 C 192 279.77 204.987 300.531 217.305 307.591 C 221.136 309.786 222.468 314.681 220.277 318.515 L 168.678 408.814 C 164.296 416.481 154.519 419.141 146.857 414.75 C 102.961 389.594 64 327.311 64 256 L 64 256 C 64 150.032 150.032 64 256 64 C 361.968 64 448 150.032 448 256 C 448 327.311 409.039 389.594 365.143 414.75 C 357.481 419.141 347.704 416.481 343.322 408.814 L 291.723 318.515 C 289.532 314.681 290.864 309.786 294.695 307.591 Z  M 154.8 400.86 C 149.87 398.02 145.19 394.79 140.77 391.2 C 135.92 387.27 131.35 383.01 127.09 378.44 C 122.51 373.54 118.25 368.36 114.33 362.92 C 110.19 357.17 106.4 351.18 102.99 344.97 C 95.73 331.79 90.1 317.77 86.23 303.23 C 82.11 287.82 80.01 271.94 80 255.99 C 80 244.08 81.19 232.2 83.58 220.53 C 85.9 209.22 89.33 198.17 93.83 187.54 C 102.69 166.63 115.51 147.63 131.58 131.58 C 147.63 115.51 166.63 102.69 187.54 93.83 C 198.17 89.33 209.22 85.9 220.53 83.58 C 232.2 81.19 244.09 79.99 256 80 C 267.91 79.99 279.8 81.19 291.47 83.58 C 302.78 85.9 313.83 89.33 324.46 93.83 C 345.37 102.69 364.37 115.51 380.42 131.58 C 396.49 147.63 409.31 166.63 418.17 187.54 C 422.67 198.17 426.1 209.22 428.42 220.53 C 430.81 232.2 432 244.08 432 255.99 C 431.99 271.94 429.89 287.82 425.77 303.23 C 421.9 317.77 416.27 331.79 409.01 344.97 C 405.6 351.18 401.81 357.17 397.67 362.92 C 393.75 368.36 389.49 373.54 384.91 378.44 C 380.65 383.01 376.08 387.27 371.23 391.2 C 366.81 394.79 362.13 398.02 357.2 400.86 L 309.23 316.9 C 309.37 316.77 309.52 316.65 309.67 316.52 C 311.87 314.66 313.93 312.64 315.84 310.48 C 319.86 305.92 323.32 300.89 326.13 295.5 C 329.21 289.68 331.6 283.52 333.26 277.15 C 335.07 270.25 335.99 263.15 336 256.02 C 336.01 245.32 333.87 234.72 329.7 224.86 C 325.68 215.37 319.86 206.73 312.56 199.44 C 305.27 192.14 296.63 186.32 287.14 182.3 C 277.28 178.13 266.7 175.99 256 176 C 245.3 175.99 234.72 178.13 224.86 182.3 C 215.37 186.32 206.73 192.14 199.44 199.44 C 192.14 206.73 186.32 215.37 182.3 224.86 C 178.13 234.72 175.99 245.32 176 256.02 C 176.01 263.15 176.93 270.25 178.74 277.15 C 180.4 283.52 182.79 289.68 185.87 295.5 C 188.68 300.89 192.14 305.92 196.16 310.48 C 198.07 312.64 200.13 314.66 202.33 316.52 C 202.48 316.65 202.63 316.77 202.77 316.9 L 154.8 400.86 Z " fill-rule="evenodd" fill="url(#_lgradient_3)"/></g></svg>