<?xml version="1.0" encoding="UTF-8" standalone="no"?><!DOCTYPE svg PUBLIC "-//W3C//DTD SVG 1.1//EN" "http://www.w3.org/Graphics/SVG/1.1/DTD/svg11.dtd"><svg width="100%" height="100%" viewBox="0 0 2134 2134" version="1.1" xmlns="http://www.w3.org/2000/svg" xmlns:xlink="http://www.w3.org/1999/xlink" xml:space="preserve" xmlns:serif="http://www.serif.com/" style="fill-rule:evenodd;clip-rule:evenodd;stroke-linecap:round;stroke-linejoin:round;stroke-miterlimit:3;"><g><path d="M1265.92,489.279c-98.092,-56.766 -211.946,-89.279 -333.333,-89.279c-367.946,0 -666.667,298.725 -666.667,666.667c0,367.941 298.721,666.666 666.667,666.666c121.387,0 235.241,-32.512 333.333,-89.279c-124.287,-71.983 -223.25,-182.933 -280.075,-316.104c-17.2,3.546 -35.017,5.383 -53.258,5.383c-147.179,0 -266.667,-119.487 -266.667,-266.666c0,-147.18 119.488,-266.667 266.667,-266.667c18.241,-0 36.058,1.837 53.258,5.383c56.825,-133.171 155.788,-244.121 280.075,-316.104Z" style="fill:none;fill-rule:nonzero;stroke:#fff;stroke-width:8.33px;"/><path d="M1646.87,903.888c13.754,-0 29.937,20.633 25.691,33.779c-22.454,69.383 -54.212,134.316 -96.287,193.991c-11.329,16.184 -39.446,22.046 -56.842,12.946c-37.421,-19.421 -69.787,-45.512 -98.712,-76.262c-6.879,-7.28 -12.946,-13.959 -4.654,-24.271c2.025,-2.429 2.629,-7.688 1.616,-10.725c-9.304,-24.271 8.496,-35.196 23.063,-47.738c58.258,-50.771 136.137,-81.721 206.125,-81.721Zm-43.088,429.446c-47.129,-1.616 -86.979,-9.508 -123.996,-29.129c-19.825,-10.516 -20.633,-19.217 -4.045,-34.592c14.966,-13.954 29.937,-27.912 44.904,-42.274c12.341,-11.934 21.241,-31.355 44.504,-18.005c3.642,2.025 13.35,-0.604 16.183,-4.245c12.138,-15.58 26.496,-10.521 41.467,-7.688c32.567,6.067 65.542,7.888 98.512,6.875c23.667,-0.604 38.23,18.813 36.005,41.671c-3.642,37.425 -24.475,57.45 -58.459,67.562c-16.787,5.059 -33.375,11.125 -50.571,14.567c-16.183,3.642 -33.175,4.246 -44.504,5.258Zm-216.641,-334.779c-25.488,-0.404 -40.255,-25.283 -29.534,-47.333c36.813,-75.45 96.488,-122.788 177.2,-146.05c38.229,-10.921 67.967,-6.067 90.013,29.333c6.879,11.125 16.791,20.229 24.679,30.746c9.304,12.342 7.283,20.025 -9.504,21.242c-40.459,2.829 -79.7,10.721 -117.125,26.496c-41.671,17.6 -78.284,42.483 -110.446,74.441c-7.484,7.688 -14.158,18.204 -25.284,11.125Zm298.163,188.729c-20.429,-2.425 -40.858,-4.245 -61.087,-7.279c-33.175,-4.854 -42.075,-24.275 -24.275,-51.583c33.375,-51.179 60.683,-105.188 81.52,-162.638c2.63,-7.279 3.842,-16.991 13.555,-18.204c11.529,-1.416 13.754,8.9 17.8,16.388c27.508,53.2 45.716,109.229 51.583,169.108c1.212,12.742 2.629,25.083 -14.771,28.117c-2.021,0.404 -4.45,2.021 -5.258,3.841c-11.529,29.13 -36.409,22.05 -59.067,22.25Zm181.246,-119.141c1.012,27.308 -4.45,55.221 -13.35,82.529c-5.463,16.387 -27.308,29.333 -48.142,25.083c-16.587,-3.437 -22.05,-17.191 -22.858,-34.183c-3.846,-71.608 -27.109,-137.35 -60.888,-200.058c-3.641,-6.675 -12.137,-11.938 -4.854,-23.063c7.484,-11.125 15.979,-8.496 24.879,-6.875c27.513,4.854 54.213,12.542 80.713,20.833c10.317,3.238 15.575,9.913 19.621,19.017c16.991,36.613 26.091,74.842 24.879,116.717Zm-528.363,54.008c7.284,-19.421 17.6,-39.446 32.771,-54.617c7.079,-7.079 22.654,-4.245 32.567,7.484c32.162,37.829 70.8,67.562 115.504,89.208c16.383,7.888 17.6,18.813 7.079,30.95c-22.654,26.904 -48.546,50.571 -75.654,73.025c-8.696,7.079 -16.992,7.279 -25.487,-0.204c-43.288,-37.625 -71.609,-84.35 -85.567,-139.979c-0.404,-1.417 -0.604,-2.834 -1.213,-5.867Zm443.405,-220.288c-15.78,-3.033 -31.555,-5.258 -46.93,-9.304c-18.812,-4.854 -28.52,-42.275 -14.97,-56.033c4.858,-4.854 10.316,-5.054 15.779,-1.821c21.241,12.95 41.062,27.717 57.854,46.121c4.246,4.654 6.471,9.508 3.237,15.779c-3.441,6.475 -8.9,6.675 -14.97,5.259Zm-81.117,-70.392c-1.413,6.471 -2.425,14.562 -4.854,22.046c-3.842,12.341 -19.621,15.779 -27.913,6.27c-10.925,-12.741 -21.037,-26.091 -31.758,-39.037c-3.442,-4.25 -5.867,-8.496 -3.642,-13.958c1.821,-4.654 6.271,-6.071 10.921,-5.463c17.396,2.429 34.388,6.675 50.371,13.754c6.271,3.038 6.875,8.9 6.875,16.388Zm76.462,407.6c0.609,-21.242 18.613,-30.95 30.546,-44.3c3.034,-3.442 11.329,-3.238 16.184,1.616c5.058,5.259 3.437,10.721 -0.609,15.78c-8.9,11.529 -17.8,23.058 -26.9,34.587c-3.441,4.25 -7.687,6.679 -13.554,4.859c-6.071,-2.025 -5.867,-7.284 -5.667,-12.542Zm-444.212,-191.363c-0.2,-9.708 1.217,-21.846 4.654,-33.779c1.821,-6.271 5.663,-10.317 12.946,-7.483c6.471,2.629 5.662,7.483 3.437,12.741c-3.841,9.305 -2.829,18.005 0.609,27.309c4.854,13.554 -6.879,21.037 -13.15,30.141c-3.234,4.45 -7.888,1.213 -8.292,-4.25c-0.608,-7.279 -0.204,-14.562 -0.204,-24.679Z" style="fill:none;stroke:#fff;stroke-width:8.33px;"/></g></svg>